<?xml version="1.0" encoding="UTF-8" standalone="no"?>
<!-- Created with Inkscape (http://www.inkscape.org/) -->

<svg
   xmlns:dc="http://purl.org/dc/elements/1.1/"
   xmlns:cc="http://creativecommons.org/ns#"
   xmlns:rdf="http://www.w3.org/1999/02/22-rdf-syntax-ns#"
   xmlns:svg="http://www.w3.org/2000/svg"
   xmlns="http://www.w3.org/2000/svg"
   xmlns:sodipodi="http://sodipodi.sourceforge.net/DTD/sodipodi-0.dtd"
   xmlns:inkscape="http://www.inkscape.org/namespaces/inkscape"
   width="2834.6455"
   height="3543.3069"
   id="svg2"
   version="1.1"
   inkscape:version="0.48.4 r9939"
   sodipodi:docname="Service.svg">
  <defs
     id="defs4">
    <clipPath
       id="clipPath5760-5"
       clipPathUnits="userSpaceOnUse">
      <path
         inkscape:connector-curvature="0"
         id="path5762-3"
         d="M 0,841.89 H 595.28 V 0 H 0 z" />
    </clipPath>
  </defs>
  <sodipodi:namedview
     id="base"
     pagecolor="#ffffff"
     bordercolor="#666666"
     borderopacity="1.0"
     inkscape:pageopacity="0.0"
     inkscape:pageshadow="2"
     inkscape:zoom="0.20030968"
     inkscape:cx="-237.43546"
     inkscape:cy="2080.8734"
     inkscape:document-units="mm"
     inkscape:current-layer="layer1"
     showgrid="false"
     units="mm"
     showguides="true"
     inkscape:guide-bbox="true"
     inkscape:window-width="1920"
     inkscape:window-height="1056"
     inkscape:window-x="0"
     inkscape:window-y="0"
     inkscape:window-maximized="1" />
  <metadata
     id="metadata7">
    <rdf:RDF>
      <cc:Work
         rdf:about="">
        <dc:format>image/svg+xml</dc:format>
        <dc:type
           rdf:resource="http://purl.org/dc/dcmitype/StillImage" />
        <dc:title />
      </cc:Work>
    </rdf:RDF>
  </metadata>
  <g
     inkscape:label="Layer 1"
     inkscape:groupmode="layer"
     id="layer1"
     transform="translate(0,2490.9461)">
    <rect
       rx="0"
       y="-2490.9463"
       x="0"
       height="3543.3071"
       width="2834.6458"
       id="rect5737-38"
       style="color:#000000;fill:#ececec;fill-opacity:1;fill-rule:evenodd;stroke:none;stroke-width:0.93749768;marker:none;visibility:visible;display:inline;overflow:visible;enable-background:accumulate" />
    <rect
       y="-2490.9463"
       x="0"
       height="708.66144"
       width="2834.6458"
       id="rect3782-32"
       style="color:#000000;fill:#1f8dd6;fill-opacity:1;fill-rule:nonzero;stroke:#2d3e50;stroke-width:0;stroke-miterlimit:4;stroke-opacity:1;stroke-dasharray:none;stroke-dashoffset:0;marker:none;visibility:visible;display:inline;overflow:visible;enable-background:accumulate" />
    <rect
       rx="7.0222373"
       ry="7.0222344"
       y="-2343.5833"
       x="519.09448"
       height="343.70078"
       width="1761.0236"
       id="rect3788-9"
       style="color:#000000;fill:none;stroke:#ffffff;stroke-width:10.62992001;stroke-miterlimit:4;stroke-opacity:1;stroke-dasharray:none;stroke-dashoffset:0;marker:none;visibility:visible;display:inline;overflow:visible;enable-background:accumulate" />
    <text
       sodipodi:linespacing="0%"
       id="text3778-5"
       y="-2109.2571"
       x="875.93396"
       style="font-size:45.88757706px;font-style:normal;font-variant:normal;font-weight:bold;font-stretch:normal;text-align:start;line-height:0%;letter-spacing:0px;word-spacing:0px;writing-mode:lr-tb;text-anchor:start;fill:#000000;fill-opacity:1;stroke:none;font-family:LiHei Pro;-inkscape-font-specification:LiHei Pro Bold"
       xml:space="preserve"
       transform="scale(0.99794483,1.0020594)"><tspan
         style="font-size:137.66307068px;line-height:1.25;fill:#ffffff"
         y="-2109.2571"
         x="875.93396"
         id="tspan3780-43"
         sodipodi:role="line">以軟體改變工業界</tspan></text>
    <rect
       y="-3071.3928"
       x="969.4353"
       height="49.606171"
       width="744.09448"
       id="rect3000-06"
       style="color:#000000;fill:#2d3e50;fill-opacity:1;fill-rule:nonzero;stroke:#2d3e50;stroke-width:0;stroke-miterlimit:4;stroke-opacity:1;stroke-dasharray:none;stroke-dashoffset:0;marker:none;visibility:visible;display:inline;overflow:visible;enable-background:accumulate" />
    <text
       sodipodi:linespacing="0%"
       id="text2996-4"
       y="-3036.4609"
       x="1032.7079"
       style="font-size:11.99996853px;font-style:normal;font-variant:normal;font-weight:bold;font-stretch:normal;text-align:start;line-height:0%;letter-spacing:0px;word-spacing:0px;writing-mode:lr-tb;text-anchor:start;fill:#000000;fill-opacity:1;stroke:none;font-family:LiHei Pro;-inkscape-font-specification:LiHei Pro Bold"
       xml:space="preserve"><tspan
         style="font-size:27.99992943px;line-height:1.25;fill:#ffffff"
         y="-3036.4609"
         x="1032.7079"
         id="tspan2998-4"
         sodipodi:role="line">動程科技 MAPACODE INC</tspan></text>
    <text
       sodipodi:linespacing="0%"
       id="text4026-3"
       y="-3034.1191"
       x="1514.7312"
       style="font-size:11.99996853px;font-style:normal;font-variant:normal;font-weight:bold;font-stretch:normal;text-align:start;line-height:0%;letter-spacing:0px;word-spacing:0px;writing-mode:lr-tb;text-anchor:start;fill:#000000;fill-opacity:1;stroke:none;font-family:LiHei Pro;-inkscape-font-specification:LiHei Pro Bold"
       xml:space="preserve"><tspan
         style="font-size:19.9999485px;line-height:1.25;fill:#ffffff"
         y="-3034.1191"
         x="1514.7312"
         id="tspan4028-7"
         sodipodi:role="line">www.mapacode.tw</tspan></text>
    <text
       sodipodi:linespacing="0%"
       id="text3784-6-1-3"
       y="-1898.7533"
       x="811.77301"
       style="font-size:45.88769531px;font-style:normal;font-variant:normal;font-weight:bold;font-stretch:normal;text-align:start;line-height:0%;letter-spacing:0px;word-spacing:0px;writing-mode:lr-tb;text-anchor:start;fill:#000000;fill-opacity:1;stroke:none;font-family:LiHei Pro;-inkscape-font-specification:LiHei Pro Bold"
       xml:space="preserve"
       transform="scale(0.99794483,1.0020594)"><tspan
         id="tspan6285-0-47"
         style="font-size:56px;line-height:1.25;fill:#ffffff"
         y="-1898.7533"
         x="811.77301"
         sodipodi:role="line">運動控制、人機界面、CNC、工業乙太網／物聯網</tspan></text>
    <text
       sodipodi:linespacing="0%"
       id="text3816-9"
       y="-1145.9563"
       x="442.66928"
       style="font-size:42.2440033px;font-style:normal;font-variant:normal;font-weight:bold;font-stretch:normal;text-align:start;line-height:0%;letter-spacing:0px;word-spacing:0px;writing-mode:lr-tb;text-anchor:start;fill:#000000;fill-opacity:1;stroke:none;font-family:LiHei Pro;-inkscape-font-specification:LiHei Pro Bold"
       xml:space="preserve"
       transform="scale(0.99978525,1.0002148)"><tspan
         style="font-size:56.32548141px;line-height:1.25;fill:#333333"
         y="-1145.9563"
         x="442.66928"
         id="tspan3818-5"
         sodipodi:role="line" /><tspan
         style="font-size:100px;line-height:1.25;fill:#666666;fill-opacity:1"
         id="tspan3824-5"
         y="-1028.5994"
         x="442.66928"
         sodipodi:role="line">•EtherCAT Master 支援 1-16 軸</tspan><tspan
         style="font-size:100px;line-height:1.25;fill:#666666;fill-opacity:1"
         y="-903.59937"
         x="442.66928"
         sodipodi:role="line"
         id="tspan4323">•3-6 軸同動</tspan><tspan
         style="font-size:100px;line-height:1.25;fill:#666666;fill-opacity:1"
         y="-778.59937"
         x="442.66928"
         sodipodi:role="line"
         id="tspan4325">•運動及能量同步(切削力、放電、雷射)</tspan><tspan
         style="font-size:100px;line-height:1.25;fill:#666666;fill-opacity:1"
         y="-653.59937"
         x="442.66928"
         sodipodi:role="line"
         id="tspan4327">•2.5 D CAM</tspan><tspan
         style="font-size:100px;line-height:1.25;fill:#666666;fill-opacity:1"
         y="-528.59937"
         x="442.66928"
         sodipodi:role="line"
         id="tspan4329" /></text>
    <text
       sodipodi:linespacing="0%"
       id="text3826-7"
       y="-234.42665"
       x="439.49237"
       style="font-size:42.2440033px;font-style:normal;font-variant:normal;font-weight:bold;font-stretch:normal;text-align:start;line-height:0%;letter-spacing:0px;word-spacing:0px;writing-mode:lr-tb;text-anchor:start;fill:#000000;fill-opacity:1;stroke:none;font-family:LiHei Pro;-inkscape-font-specification:LiHei Pro Bold"
       xml:space="preserve"
       transform="scale(0.99978525,1.0002148)"><tspan
         style="font-size:100px;line-height:1.25;fill:#666666"
         id="tspan3842-41"
         y="-234.42665"
         x="439.49237"
         sodipodi:role="line">•機台資料收集</tspan><tspan
         style="font-size:100px;line-height:1.25;fill:#666666"
         y="-109.42666"
         x="439.49237"
         sodipodi:role="line"
         id="tspan4383">  (Fanuc、Siemens、Heidenhai、國內各廠牌 CNC)</tspan><tspan
         style="font-size:100px;line-height:1.25;fill:#666666"
         y="15.573345"
         x="439.49237"
         sodipodi:role="line"
         id="tspan4377">•MTConnect</tspan><tspan
         style="font-size:100px;line-height:1.25;fill:#666666"
         y="140.57335"
         x="439.49237"
         sodipodi:role="line"
         id="tspan4379">•OPC-UA</tspan><tspan
         style="font-size:100px;line-height:1.25;fill:#666666"
         y="265.57333"
         x="439.49237"
         sodipodi:role="line"
         id="tspan4381" /></text>
    <text
       sodipodi:linespacing="0%"
       id="text3882-9"
       y="-395.89035"
       x="469.41678"
       style="font-size:42.2440033px;font-style:normal;font-variant:normal;font-weight:bold;font-stretch:normal;text-align:start;line-height:0%;letter-spacing:0px;word-spacing:0px;writing-mode:lr-tb;text-anchor:start;fill:#8d5fd3;fill-opacity:1;stroke:none;font-family:LiHei Pro;-inkscape-font-specification:LiHei Pro Bold"
       xml:space="preserve"
       transform="scale(0.99978525,1.0002148)"><tspan
         style="font-size:120px;line-height:1.25000000000000000;fill:#ff9955;fill-opacity:1"
         id="tspan3886-6"
         y="-395.89035"
         x="469.41678"
         sodipodi:role="line">機聯網</tspan></text>
    <flowRoot
       xml:space="preserve"
       id="flowRoot3434"
       style="fill:black;stroke:none;stroke-opacity:1;stroke-width:1px;stroke-linejoin:miter;stroke-linecap:butt;fill-opacity:1;font-family:LiHei Pro;font-style:normal;font-weight:bold;font-size:72px;line-height:125%;letter-spacing:0px;word-spacing:0px;-inkscape-font-specification:LiHei Pro Bold;font-stretch:normal;font-variant:normal;text-anchor:start;text-align:start;writing-mode:lr"><flowRegion
         id="flowRegion3436"><rect
           id="rect3438"
           width="84.852814"
           height="96.166519"
           x="407.29352"
           y="1354.1042" /></flowRegion><flowPara
         id="flowPara3440" /></flowRoot>    <flowRoot
       xml:space="preserve"
       id="flowRoot3450"
       style="fill:black;stroke:none;stroke-opacity:1;stroke-width:1px;stroke-linejoin:miter;stroke-linecap:butt;fill-opacity:1;font-family:LiHei Pro;font-style:normal;font-weight:bold;font-size:100px;line-height:125%;letter-spacing:0px;word-spacing:0px;-inkscape-font-specification:LiHei Pro Bold;font-stretch:normal;font-variant:normal;text-anchor:start;text-align:start;writing-mode:lr"><flowRegion
         id="flowRegion3452"><rect
           id="rect3454"
           width="39.59798"
           height="144.24979"
           x="1148.3414"
           y="1504.011" /></flowRegion><flowPara
         id="flowPara3456" /></flowRoot>    <text
       sodipodi:linespacing="0%"
       id="text3882-9-7"
       y="-1196.6469"
       x="437.64993"
       style="font-size:42.2440033px;font-style:normal;font-variant:normal;font-weight:bold;font-stretch:normal;text-align:start;line-height:0%;letter-spacing:0px;word-spacing:0px;writing-mode:lr-tb;text-anchor:start;fill:#000000;fill-opacity:1;stroke:none;font-family:LiHei Pro;-inkscape-font-specification:LiHei Pro Bold"
       xml:space="preserve"
       transform="scale(0.99978525,1.0002148)"><tspan
         style="font-size:120px;line-height:1.25000000000000000;fill:#d35f5f;fill-opacity:1"
         id="tspan3886-6-5"
         y="-1196.6469"
         x="437.64993"
         sodipodi:role="line">客製化 CNC 及運動控制系統</tspan></text>
    <text
       sodipodi:linespacing="0%"
       id="text3917-7-9-3-9"
       y="-1534.845"
       x="602.66553"
       style="font-size:74.27935791px;font-style:normal;font-variant:normal;font-weight:bold;font-stretch:normal;text-align:start;line-height:0%;letter-spacing:0px;word-spacing:0px;writing-mode:lr-tb;text-anchor:start;fill:#000000;fill-opacity:1;stroke:none;font-family:LiHei Pro;-inkscape-font-specification:LiHei Pro Bold"
       xml:space="preserve"><tspan
         style="font-size:120px;line-height:1.25;fill:#2d3e50;fill-opacity:1"
         y="-1534.845"
         x="602.66553"
         id="tspan3919-2-9-3-1"
         sodipodi:role="line">CNC、智慧型機台控制系統開發/客製</tspan></text>
    <g
       style="fill:#1f8dd6;fill-opacity:1"
       transform="matrix(0.6834975,0,0,0.6834975,205.12995,-1734.9551)"
       id="g9846">
      <g
         style="fill:#2d3e50;fill-opacity:1"
         id="g9790">
        <g
           style="fill:#2d3e50;fill-opacity:1"
           id="g9792">
          <g
             style="fill:#2d3e50;fill-opacity:1"
             id="g9794">
            <path
               style="fill:#2d3e50;fill-opacity:1"
               inkscape:connector-curvature="0"
               d="m 480.9,302.3 c -27.2,-22.3 -56.5,-37.1 -62.4,-40 -0.7,-0.3 -1.1,-1 -1.1,-1.8 v -42.3 c 5.3,-3.5 8.8,-9.6 8.8,-16.5 v -43.9 c 0,-21.8 -17.7,-39.5 -39.5,-39.5 h -4.7 -4.7 c -21.8,0 -39.5,17.7 -39.5,39.5 v 43.9 c 0,6.9 3.5,12.9 8.8,16.5 v 42.3 c 0,0.3 -0.1,0.5 -0.1,0.7 8.3,5.7 17,12.1 25.5,19.1 9.9,8.2 15.6,20.2 15.6,33.2 v 35.3 h 101 v -30.1 c 0,-6.3 -2.8,-12.3 -7.7,-16.4 z"
               id="path9796" />
          </g>
          <g
             style="fill:#2d3e50;fill-opacity:1"
             id="g9798">
            <path
               style="fill:#2d3e50;fill-opacity:1"
               inkscape:connector-curvature="0"
               d="m 142,260.5 v -42.3 c 5.3,-3.5 8.8,-9.6 8.8,-16.5 v -43.9 c 0,-21.8 -17.7,-39.5 -39.5,-39.5 h -4.7 -4.7 c -21.8,0 -39.5,17.7 -39.5,39.5 v 43.9 c 0,6.9 3.5,12.9 8.8,16.5 v 42.3 c 0,0.7 -0.4,1.4 -1.1,1.8 -6,2.9 -35.3,17.7 -62.4,40 -4.9,4 -7.7,10.1 -7.7,16.4 v 30.1 h 101 v -35.3 c 0,-12.9 5.7,-25 15.6,-33.2 8.5,-7 17.2,-13.4 25.5,-19.1 0,-0.2 -0.1,-0.4 -0.1,-0.7 z"
               id="path9800" />
          </g>
          <g
             style="fill:#2d3e50;fill-opacity:1"
             id="g9802">
            <path
               style="fill:#2d3e50;fill-opacity:1"
               inkscape:connector-curvature="0"
               d="m 360.5,294.2 c -31.9,-26.2 -66.3,-43.6 -73.4,-47.1 -0.8,-0.4 -1.3,-1.2 -1.3,-2.1 V 195.3 C 292,191.1 296.2,184 296.2,176 v -51.5 c 0,-25.6 -20.8,-46.4 -46.4,-46.4 h -5.5 -5.5 c -25.6,0 -46.4,20.8 -46.4,46.4 V 176 c 0,8.1 4.1,15.2 10.4,19.3 V 245 c 0,0.9 -0.5,1.7 -1.3,2.1 -7,3.4 -41.4,20.8 -73.4,47.1 -5.8,4.7 -9.1,11.8 -9.1,19.3 v 35.3 h 47.3 v -4 c 0,-10.3 7.3,-18.9 17,-20.9 0.1,-0.2 0.2,-0.4 0.3,-0.6 -2.3,-3.4 -3.5,-7.5 -3.5,-11.7 0,-5.7 2.2,-11 6.2,-15.1 l 5.7,-5.7 c 4,-4 9.4,-6.2 15.1,-6.2 4.3,0 8.4,1.3 11.8,3.6 0.2,-0.1 0.3,-0.1 0.5,-0.2 1.9,-9.8 10.5,-17.2 20.9,-17.2 h 8.1 v 0 0 c 10.4,0 19,7.4 20.9,17.2 0.1,0.1 0.2,0.1 0.4,0.2 3.5,-2.4 7.6,-3.7 12,-3.7 5.7,0 11,2.2 15,6.2 l 5.7,5.7 c 7.3,7.3 8.2,18.7 2.6,27 0.1,0.1 0.1,0.2 0.2,0.4 9.8,1.9 17.3,10.5 17.3,20.9 v 4.1 h 47.3 v -35.3 c -0.2,-7.5 -3.5,-14.6 -9.3,-19.3 z"
               id="path9804" />
          </g>
          <g
             style="fill:#2d3e50;fill-opacity:1"
             id="g9806">
            <path
               style="fill:#2d3e50;fill-opacity:1"
               inkscape:connector-curvature="0"
               d="m 301,339.4 h -8 c -1.3,-6.6 -3.8,-12.9 -7.8,-18.6 l 5.7,-5.7 c 2,-2 2,-5.4 0,-7.4 l -5.7,-5.7 c -2,-2 -5.4,-2 -7.4,0 l -5.7,5.7 c -5.7,-3.9 -12.1,-6.5 -18.6,-7.7 v -8 c 0,-2.9 -2.3,-5.2 -5.2,-5.2 h -8.1 c -2.9,0 -5.2,2.3 -5.2,5.2 v 7.9 c -6.6,1.2 -13,3.8 -18.7,7.7 l -5.6,-5.6 c -2,-2 -5.4,-2 -7.4,0 l -5.7,5.7 c -2,2 -2,5.4 0,7.4 l 5.5,5.5 c -3.9,5.8 -6.6,12.2 -7.8,18.8 h -7.7 c -2.9,0 -5.2,2.3 -5.2,5.2 v 8.1 c 0,2.9 2.3,5.2 5.2,5.2 h 7.7 c 1.2,6.6 3.8,13.1 7.8,18.8 l -5.4,5.4 c -2,2 -2,5.4 0,7.4 l 5.7,5.7 c 2,2 5.4,2 7.4,0 l 5.4,-5.4 c 5.8,3.9 12.2,6.5 18.9,7.8 v 7.7 c 0,2.9 2.3,5.2 5.2,5.2 h 8.1 c 2.9,0 5.2,-2.3 5.2,-5.2 v -7.7 c 6.6,-1.3 13,-3.9 18.7,-7.8 l 5.5,5.5 c 2,2 5.4,2 7.4,0 l 5.7,-5.7 c 2,-2 2,-5.4 0,-7.4 l -5.6,-5.6 c 3.9,-5.8 6.4,-12.1 7.7,-18.7 h 7.9 c 2.9,0 5.2,-2.3 5.2,-5.2 v -8.1 c 0.2,-2.8 -2.2,-5.2 -5.1,-5.2 z m -37.6,28.4 c -10.5,10.5 -27.6,10.6 -38.2,0 -10.5,-10.5 -10.6,-27.6 0,-38.2 10.5,-10.5 27.6,-10.6 38.2,0 10.5,10.6 10.5,27.7 0,38.2 z"
               id="path9808" />
          </g>
        </g>
      </g>
      <g
         style="fill:#1f8dd6;fill-opacity:1"
         id="g9810" />
      <g
         style="fill:#1f8dd6;fill-opacity:1"
         id="g9812" />
      <g
         style="fill:#1f8dd6;fill-opacity:1"
         id="g9814" />
      <g
         style="fill:#1f8dd6;fill-opacity:1"
         id="g9816" />
      <g
         style="fill:#1f8dd6;fill-opacity:1"
         id="g9818" />
      <g
         style="fill:#1f8dd6;fill-opacity:1"
         id="g9820" />
      <g
         style="fill:#1f8dd6;fill-opacity:1"
         id="g9822" />
      <g
         style="fill:#1f8dd6;fill-opacity:1"
         id="g9824" />
      <g
         style="fill:#1f8dd6;fill-opacity:1"
         id="g9826" />
      <g
         style="fill:#1f8dd6;fill-opacity:1"
         id="g9828" />
      <g
         style="fill:#1f8dd6;fill-opacity:1"
         id="g9830" />
      <g
         style="fill:#1f8dd6;fill-opacity:1"
         id="g9832" />
      <g
         style="fill:#1f8dd6;fill-opacity:1"
         id="g9834" />
      <g
         style="fill:#1f8dd6;fill-opacity:1"
         id="g9836" />
      <g
         style="fill:#1f8dd6;fill-opacity:1"
         id="g9838" />
    </g>
    <flowRoot
       xml:space="preserve"
       id="flowRoot4385"
       style="fill:black;stroke:none;stroke-opacity:1;stroke-width:1px;stroke-linejoin:miter;stroke-linecap:butt;fill-opacity:1;font-family:LiHei Pro;font-style:normal;font-weight:bold;font-size:100px;line-height:125%;letter-spacing:0px;word-spacing:0px;-inkscape-font-specification:LiHei Pro Bold;font-stretch:normal;font-variant:normal;text-anchor:start;text-align:start;writing-mode:lr"><flowRegion
         id="flowRegion4387"><rect
           id="rect4389"
           width="572"
           height="156"
           x="-168"
           y="2015.3069" /></flowRegion><flowPara
         id="flowPara4391" /></flowRoot>    <flowRoot
       xml:space="preserve"
       id="flowRoot4393"
       style="fill:black;stroke:none;stroke-opacity:1;stroke-width:1px;stroke-linejoin:miter;stroke-linecap:butt;fill-opacity:1;font-family:LiHei Pro;font-style:normal;font-weight:bold;font-size:100px;line-height:125%;letter-spacing:0px;word-spacing:0px;-inkscape-font-specification:LiHei Pro Bold;font-stretch:normal;font-variant:normal;text-anchor:start;text-align:start;writing-mode:lr"><flowRegion
         id="flowRegion4395"><rect
           id="rect4397"
           width="3348"
           height="976"
           x="-412"
           y="1915.3069" /></flowRegion><flowPara
         id="flowPara4399" /></flowRoot>    <text
       sodipodi:linespacing="0%"
       id="text3826-7-6"
       y="546.79553"
       x="427.10532"
       style="font-size:42.2440033px;font-style:normal;font-variant:normal;font-weight:bold;font-stretch:normal;text-align:start;line-height:0%;letter-spacing:0px;word-spacing:0px;writing-mode:lr-tb;text-anchor:start;fill:#000000;fill-opacity:1;stroke:none;font-family:LiHei Pro;-inkscape-font-specification:LiHei Pro Bold"
       xml:space="preserve"
       transform="scale(0.99978525,1.0002148)"><tspan
         style="font-size:100px;line-height:1.25;fill:#666666"
         y="546.79553"
         x="427.10532"
         sodipodi:role="line"
         id="tspan4379-2">•七軸航太環件放電加工機</tspan><tspan
         style="font-size:100px;line-height:1.25;fill:#666666"
         y="671.79553"
         x="427.10532"
         sodipodi:role="line"
         id="tspan4455">•七軸眼鏡車片機 (CNC + 2.5D CAM)</tspan><tspan
         style="font-size:100px;line-height:1.25;fill:#666666"
         y="796.79553"
         x="427.10532"
         sodipodi:role="line"
         id="tspan4457" /><tspan
         style="font-size:100px;line-height:1.25;fill:#666666"
         y="921.79553"
         x="427.10532"
         sodipodi:role="line"
         id="tspan4381-7" /></text>
    <text
       sodipodi:linespacing="0%"
       id="text3882-9-0"
       y="361.83777"
       x="384.09384"
       style="font-size:42.2440033px;font-style:normal;font-variant:normal;font-weight:bold;font-stretch:normal;text-align:start;line-height:0%;letter-spacing:0px;word-spacing:0px;writing-mode:lr-tb;text-anchor:start;fill:#d35f5f;fill-opacity:1;stroke:none;font-family:LiHei Pro;-inkscape-font-specification:LiHei Pro Bold"
       xml:space="preserve"
       transform="scale(0.99978525,1.0002148)"><tspan
         style="font-size:120px;line-height:1.25000000000000000;fill:#abc837;fill-opacity:1"
         id="tspan3886-6-9"
         y="361.83777"
         x="384.09384"
         sodipodi:role="line">實例應用</tspan></text>
    <text
       xml:space="preserve"
       style="font-size:100px;font-style:normal;font-variant:normal;font-weight:bold;font-stretch:normal;text-align:start;line-height:125%;letter-spacing:0px;word-spacing:0px;writing-mode:lr-tb;text-anchor:start;fill:#000000;fill-opacity:1;stroke:none;font-family:LiHei Pro;-inkscape-font-specification:LiHei Pro Bold"
       x="-628"
       y="2523.3069"
       id="text4459"
       sodipodi:linespacing="125%"
       transform="translate(0,-2490.9461)"><tspan
         sodipodi:role="line"
         id="tspan4461"
         x="-628"
         y="2523.3069" /></text>
    <g
       id="g4504"
       transform="matrix(0.5715921,0,0,0.5715921,-556.6288,-658.39801)"
       style="fill:#ff9955;fill-opacity:1">
      <g
         id="g4464"
         style="fill:#ff9955;fill-opacity:1">
        <g
           id="g4696"
           transform="matrix(3.8061073,0,0,3.8061073,1303.0813,150.90639)"
           style="fill:#ff9955;fill-opacity:1">
          <g
             id="g4524"
             style="fill:#ff9955;fill-opacity:1">
            <g
               id="g4526"
               style="fill:#ff9955;fill-opacity:1">
              <polygon
                 id="polygon4528"
                 points="52.101,49.626 48.243,53.488 67.536,53.488 63.682,49.626 "
                 style="fill:#ff9955;fill-opacity:1" />
              <path
                 id="path4530"
                 d="m 50.526,32.866 c 0.011,-0.079 -0.197,-0.376 -0.286,-0.465 -0.286,-0.279 -0.48,-0.225 -0.737,0.104 0.254,0.032 0.283,-0.319 0.365,-0.039 0.319,0.039 0.387,0.376 0.297,0.591 0.161,0.025 0.319,0.225 0.465,0.025 -0.064,-0.094 0.036,-0.173 -0.104,-0.216 z"
                 style="fill:#ff9955;fill-opacity:1"
                 inkscape:connector-curvature="0" />
              <path
                 id="path4532"
                 d="m 61.993,28.633 c -0.014,-0.007 -0.021,-0.025 -0.021,-0.047 -0.032,0.021 -0.064,0.036 -0.097,0.036 0.029,0.032 0.054,0.147 0.097,0.157 0.017,-0.018 0.017,-0.103 0.021,-0.146 z"
                 style="fill:#ff9955;fill-opacity:1"
                 inkscape:connector-curvature="0" />
              <path
                 id="path4534"
                 d="m 60.053,26.782 c 0,0.075 0.014,0.057 0.014,0.154 0.007,0 0.021,0 0.032,0 -0.007,-0.011 -0.018,-0.018 0,-0.039 0.136,0.068 0.029,0.025 0.025,0.118 0,0.043 0.172,0.021 0.197,0.025 -0.047,0.061 0.007,0.072 0.075,0.072 0,0.086 -0.118,0.086 -0.186,0.079 0,0.1 -0.082,0.111 -0.082,0.165 0,0.014 0.222,0.057 0.251,0.025 0,0.047 -0.229,0.086 -0.279,0.168 0.082,0.004 0.798,-0.061 0.798,-0.089 -0.029,-0.007 -0.057,-0.014 -0.082,-0.018 0.093,-0.111 0.093,-0.218 0,-0.172 -0.014,0.004 -0.021,0.011 -0.05,0.014 -0.007,-0.161 -0.251,-0.326 -0.412,-0.369 0.014,-0.039 0.154,-0.093 0.14,-0.161 -0.125,0.057 -0.208,0.043 -0.247,-0.036 0.036,-0.014 0.068,-0.032 0.1,-0.054 0,-0.136 -0.344,0.043 -0.272,0.072 0,0.014 -0.093,-0.014 -0.104,-0.014 -0.011,0.039 0.021,0.05 0.082,0.06 z"
                 style="fill:#ff9955;fill-opacity:1"
                 inkscape:connector-curvature="0" />
              <path
                 id="path4536"
                 d="m 60.186,27.079 c -0.025,0.007 -0.029,0.018 -0.029,0.032 0.029,0 0.036,0 0.05,0.004 0,-0.014 0,-0.025 0,-0.032 -0.007,-0.004 -0.014,-0.004 -0.021,-0.004 z"
                 style="fill:#ff9955;fill-opacity:1"
                 inkscape:connector-curvature="0" />
              <path
                 id="path4538"
                 d="m 51.31,33.457 c -0.018,-0.065 -0.011,-0.047 0,0 -0.061,-0.111 -0.039,-0.272 -0.197,-0.297 -0.075,-0.011 -0.161,0.057 -0.215,-0.032 -0.118,-0.179 -0.125,0.286 -0.129,0.333 -0.029,-0.014 -0.515,0.029 -0.268,0.172 0.097,-0.265 0.322,0.147 0.326,0.147 0.036,0.007 0.19,-0.229 0.2,-0.129 0,0.004 0.329,0.004 0.344,0.007 0,0.007 -0.043,-0.14 -0.057,-0.208 -0.004,0.003 -0.004,0.007 -0.004,0.007 z"
                 style="fill:#ff9955;fill-opacity:1"
                 inkscape:connector-curvature="0" />
              <path
                 id="path4540"
                 d="m 62.809,29.313 c -0.061,-0.014 -0.308,-0.036 -0.361,-0.018 0.007,0.054 0.279,0.204 0.344,0.211 0.006,-0.004 0.01,-0.158 0.017,-0.193 z"
                 style="fill:#ff9955;fill-opacity:1"
                 inkscape:connector-curvature="0" />
              <path
                 id="path4542"
                 d="m 51.532,33.793 c -0.036,0.115 0.161,0.172 0.218,0.093 -0.003,-0.053 -0.182,-0.204 -0.218,-0.093 z"
                 style="fill:#ff9955;fill-opacity:1"
                 inkscape:connector-curvature="0" />
              <path
                 id="path4544"
                 d="m 65.346,29.91 c -0.075,0.004 -0.179,0.036 -0.233,0.061 0.026,0.129 0.237,0.004 0.233,-0.061 z"
                 style="fill:#ff9955;fill-opacity:1"
                 inkscape:connector-curvature="0" />
              <path
                 id="path4546"
                 d="m 61.868,28.851 c 0.011,0.032 0.057,0.057 0.057,0.089 0.05,0.369 0.29,-0.139 -0.057,-0.089 z"
                 style="fill:#ff9955;fill-opacity:1"
                 inkscape:connector-curvature="0" />
              <path
                 id="path4548"
                 d="m 53.124,26.178 c -0.018,0 -0.039,0.004 -0.057,0.007 0.032,0 0.057,0 0.079,-0.007 0.089,-0.004 0.168,-0.014 0.147,-0.036 0.007,-0.004 0.025,-0.007 0.036,-0.007 -0.054,-0.05 -0.261,-0.029 -0.333,-0.021 -0.018,0.007 -0.014,0.011 0.018,0.011 -0.007,0.004 -0.021,0.007 -0.032,0.007 0.007,0.004 0.029,0 0.082,-0.004 -0.032,0.021 -0.072,0.029 -0.107,0.025 0.017,0.017 0.092,0.025 0.167,0.025 z"
                 style="fill:#ff9955;fill-opacity:1"
                 inkscape:connector-curvature="0" />
              <path
                 id="path4550"
                 d="m 52.895,26.213 c -0.039,-0.004 -0.011,-0.021 -0.075,-0.021 -0.021,0.011 -0.007,0.036 0.018,0.036 0.022,0 0.043,-0.004 0.057,-0.015 z"
                 style="fill:#ff9955;fill-opacity:1"
                 inkscape:connector-curvature="0" />
              <path
                 id="path4552"
                 d="m 53.636,26.185 c 0.029,0 0.05,-0.007 0.075,-0.021 -0.072,0.004 -0.147,0 -0.215,0.014 -0.003,0 0.126,0.007 0.14,0.007 z"
                 style="fill:#ff9955;fill-opacity:1"
                 inkscape:connector-curvature="0" />
              <path
                 id="path4554"
                 d="m 59.631,27.351 c 0.215,0.014 0.347,-0.047 0.351,-0.24 0,-0.029 0.179,-0.136 -0.064,-0.154 -0.036,-0.004 -0.243,-0.011 -0.168,0.075 -0.036,0.014 -0.165,0 -0.168,0.047 0.025,0.021 0.054,0.043 0.075,0.064 -0.015,0.054 -0.248,0.194 -0.026,0.208 z"
                 style="fill:#ff9955;fill-opacity:1"
                 inkscape:connector-curvature="0" />
              <path
                 id="path4556"
                 d="m 53.482,26.149 c -0.125,0.014 0.075,0.004 0.136,0 0.058,-0.068 -0.204,-0.05 -0.136,0 z"
                 style="fill:#ff9955;fill-opacity:1"
                 inkscape:connector-curvature="0" />
              <path
                 id="path4558"
                 d="m 59.924,26.707 c 0.047,0 0.075,-0.025 0.079,-0.05 -0.007,0 -0.157,0.043 -0.079,0.05 z"
                 style="fill:#ff9955;fill-opacity:1"
                 inkscape:connector-curvature="0" />
              <path
                 id="path4560"
                 d="m 53.55,26.067 c 0.007,-0.004 0.018,-0.011 0.029,-0.014 -0.014,0 -0.05,0 -0.082,0.004 -0.04,0.017 0.093,0.01 0.053,0.01 z"
                 style="fill:#ff9955;fill-opacity:1"
                 inkscape:connector-curvature="0" />
              <path
                 id="path4562"
                 d="m 49.632,32.609 c 0.021,-0.047 0.032,0.107 0.111,-0.115 -0.025,-0.029 -0.025,0.007 -0.043,0.047 -0.036,0.003 -0.058,0.028 -0.068,0.068 z"
                 style="fill:#ff9955;fill-opacity:1"
                 inkscape:connector-curvature="0" />
              <polygon
                 id="polygon4564"
                 points="51.886,26.789 51.897,26.789 51.9,26.789 "
                 style="fill:#ff9955;fill-opacity:1" />
              <path
                 id="path4566"
                 d="m 62.73,26.983 c 0.021,-0.029 0.047,-0.057 0.068,-0.086 -0.029,0 -0.125,0.046 -0.068,0.086 z"
                 style="fill:#ff9955;fill-opacity:1"
                 inkscape:connector-curvature="0" />
              <path
                 id="path4568"
                 d="m 63.142,26.918 c 0.05,0.004 0.072,-0.039 0.072,-0.075 -0.021,-0.011 -0.125,-0.039 -0.036,0.025 -0.032,0 -0.054,0.011 -0.079,0.011 -0.004,0.011 0.007,0.036 0.043,0.039 z"
                 style="fill:#ff9955;fill-opacity:1"
                 inkscape:connector-curvature="0" />
              <path
                 id="path4570"
                 d="m 50.15,33.568 c -0.021,-0.025 -0.068,-0.082 -0.122,-0.093 -0.036,-0.007 -0.168,0.161 0.132,0.15 0.007,-0.032 0.007,-0.057 -0.014,-0.075 10e-4,0.004 0.004,0.007 0.004,0.018 z"
                 style="fill:#ff9955;fill-opacity:1"
                 inkscape:connector-curvature="0" />
              <path
                 id="path4572"
                 d="m 51.886,26.789 c -0.082,0 -0.147,0 -0.165,0.014 -0.021,0.015 0.122,-0.006 0.165,-0.014 z"
                 style="fill:#ff9955;fill-opacity:1"
                 inkscape:connector-curvature="0" />
              <polygon
                 id="polygon4574"
                 points="51.324,26.815 51.289,26.843 51.335,26.836 "
                 style="fill:#ff9955;fill-opacity:1" />
              <path
                 id="path4576"
                 d="m 52.298,26.725 c 0,0 -0.014,-0.032 -0.025,-0.029 0.039,-0.025 0.125,-0.018 0.172,-0.029 -0.089,-0.072 -0.161,0.007 -0.104,-0.122 0.011,-0.029 0.154,-0.115 0.165,-0.111 -0.168,-0.061 -0.293,0.136 -0.419,0.143 0.021,0 -0.19,-0.075 -0.319,-0.043 0.007,-0.036 -0.004,-0.047 -0.021,-0.047 0.004,-0.004 0.004,-0.014 0.004,-0.029 -0.018,0.014 -0.032,0.029 -0.047,0.039 l 0,0 c -0.007,0.004 -0.014,0.011 -0.021,0.014 -0.068,0.05 -0.129,0.107 -0.197,0.161 0.043,-0.004 0.1,-0.014 0.14,0.004 -0.104,0.011 -0.157,0.029 -0.233,0.075 -0.007,0.004 -0.014,0.011 -0.021,0.018 0.025,0 0.057,-0.004 0.061,0 0.034,0.038 0.743,0.017 0.865,-0.044 z"
                 style="fill:#ff9955;fill-opacity:1"
                 inkscape:connector-curvature="0" />
              <path
                 id="path4578"
                 d="m 50.755,31.531 c -0.018,0 -0.061,0.018 -0.079,0.039 0.025,0.004 0.064,0.014 0.111,0.011 0,-0.014 0,-0.046 -0.032,-0.05 z"
                 style="fill:#ff9955;fill-opacity:1"
                 inkscape:connector-curvature="0" />
              <path
                 id="path4580"
                 d="m 50.598,31.871 c -0.007,0.014 -0.029,0.208 0.021,0.097 0.011,-0.021 -0.007,-0.122 -0.021,-0.097 z"
                 style="fill:#ff9955;fill-opacity:1"
                 inkscape:connector-curvature="0" />
              <path
                 id="path4582"
                 d="m 52.82,26.303 c 0.036,0 0.089,-0.011 0.143,-0.014 -0.032,-0.007 -0.147,-0.054 -0.147,-0.021 l 0,0 -0.032,0.018 c 0.011,0.004 0.014,0.011 0.047,0.007 -0.011,0.003 -0.011,0.003 -0.011,0.01 z"
                 style="fill:#ff9955;fill-opacity:1"
                 inkscape:connector-curvature="0" />
              <path
                 id="path4584"
                 d="m 50.859,32.766 c 0.075,0.004 0.115,-0.025 0.122,-0.093 -0.018,0.014 -0.19,0.075 -0.122,0.093 z"
                 style="fill:#ff9955;fill-opacity:1"
                 inkscape:connector-curvature="0" />
              <path
                 id="path4586"
                 d="m 61.248,25.845 c -0.007,0 -0.014,0 -0.021,0 0.036,0.025 0.161,0.011 0.222,0.007 -0.057,0.007 -0.15,0.025 -0.15,0.021 0,0.025 0.172,0.021 0.193,0.025 -0.057,0 -0.104,0 -0.161,0 0.011,0.122 0.351,0.004 0.462,-0.021 0.011,0.011 0.036,0.021 0.057,0.025 -0.007,0.014 -0.039,0.007 -0.039,0.025 0.032,0.004 0.089,0.007 0.125,0.011 -0.007,0.004 -0.004,0.011 0,0.018 0.075,-0.004 0.1,-0.021 0.179,-0.025 -0.079,-0.043 -0.186,-0.054 -0.265,-0.064 0.007,0 0.014,0 0.029,0 -0.021,-0.007 -0.043,-0.014 -0.072,-0.025 0.15,0.014 0.422,-0.029 0.483,-0.036 -0.161,-0.079 -0.433,-0.043 -0.608,-0.047 0.007,0.004 0.007,0.004 0.014,0.007 -0.014,0 -0.029,0 -0.043,0 v 0.004 c -0.029,-0.004 -0.057,-0.004 -0.082,-0.004 0.014,0.032 0.104,0.029 0.125,0.029 0.007,0 0.111,0.004 0.125,0.007 -0.039,0 -0.075,0.004 -0.118,0 0.007,0.007 0.014,0.014 0.029,0.018 -0.064,-0.014 -0.125,-0.018 -0.175,-0.014 0,-0.004 0.007,-0.007 0.007,-0.014 0,-0.004 -0.215,-0.061 -0.111,0.029 -0.021,-0.004 -0.175,-0.025 -0.125,-0.014 -0.014,-0.004 -0.043,-0.004 -0.064,-0.014 0.007,0 0.014,-0.004 0.029,-0.007 -0.064,-0.011 -0.118,-0.007 -0.183,0.007 0.021,0.011 0.05,0.018 0.075,0.021 -0.012,0.016 0.021,0.024 0.063,0.031 z"
                 style="fill:#ff9955;fill-opacity:1"
                 inkscape:connector-curvature="0" />
              <path
                 id="path4588"
                 d="m 52.813,27.233 c 0.054,-0.007 0.168,-0.047 0.218,-0.068 -0.072,-0.018 -0.132,0.014 -0.193,0.043 -0.007,0.007 -0.018,0.018 -0.025,0.025 z"
                 style="fill:#ff9955;fill-opacity:1"
                 inkscape:connector-curvature="0" />
              <polygon
                 id="polygon4590"
                 points="61.12,25.827 61.12,25.823 61.112,25.827 "
                 style="fill:#ff9955;fill-opacity:1" />
              <path
                 id="path4592"
                 d="m 62.007,27.165 c 0.068,0.014 0.072,-0.068 0.132,-0.075 -0.089,-0.154 -0.265,0.007 -0.082,0.043 0.004,0.018 -0.021,0.029 -0.05,0.032 z"
                 style="fill:#ff9955;fill-opacity:1"
                 inkscape:connector-curvature="0" />
              <path
                 id="path4594"
                 d="m 54.066,28.654 c -0.018,0.032 0.175,0.143 0.229,0.036 -0.082,0.025 -0.15,0.007 -0.2,-0.057 -0.011,0.003 -0.026,0.01 -0.029,0.021 z"
                 style="fill:#ff9955;fill-opacity:1"
                 inkscape:connector-curvature="0" />
              <path
                 id="path4596"
                 d="m 55.143,26.013 c 0,-0.011 -0.021,-0.014 -0.043,-0.014 0.039,0 0.064,0 0.075,-0.014 -0.018,0 -0.036,0 -0.057,0 0.218,-0.057 0.455,-0.05 0.673,-0.111 -0.039,0 -0.111,0.004 -0.122,0 0.021,-0.004 0.268,-0.004 0.283,-0.032 0.018,-0.036 -0.397,0.025 -0.24,-0.014 -0.304,-0.107 -1.16,-0.032 -1.46,0.079 0.057,0 0.111,-0.007 0.165,-0.011 -0.032,0.004 -0.05,0.007 -0.086,0.014 0.064,0.011 0.125,-0.014 0.19,-0.011 -0.068,0.007 -0.122,0.007 -0.183,0.025 0.036,0 0.075,-0.004 0.107,-0.004 -0.025,0.004 -0.05,0.007 -0.075,0.011 0.011,0.018 0.064,0.021 0.132,0.021 0.036,0.011 0.021,0.018 -0.043,0.018 0.025,0.004 0.097,0.029 0.089,0.036 -0.14,0.093 -0.157,-0.011 -0.24,0.036 0.039,-0.021 0.036,-0.029 -0.007,-0.029 -0.057,0.029 -0.222,-0.043 -0.304,-0.039 -0.018,0.011 0.021,0.011 0.043,0.011 -0.05,0 -0.097,0.004 -0.147,0.011 0.004,0.007 0.011,0.007 0.018,0.011 -0.036,0 -0.075,-0.004 -0.107,0.011 0.025,0.011 0.05,0.014 0.075,0.014 -0.039,0 -0.086,0 -0.129,0 -0.032,0.025 0.011,0.025 0.097,0.021 -0.007,0.004 -0.014,0.004 -0.018,0.004 0.068,0 0.175,0.007 0.208,0.011 -0.075,0 -0.147,0.007 -0.222,0.021 0.011,0.014 0.029,0.018 0.043,0.021 0.007,0 0.021,0 0.032,-0.004 -0.004,0 -0.014,0 -0.018,0.004 0.057,-0.014 0.222,-0.004 0.276,-0.007 0.004,-0.007 -0.004,-0.007 -0.004,-0.014 0.068,-0.014 0.183,-0.025 0.247,0.025 -0.043,0.004 -0.351,-0.032 -0.215,0.029 -0.05,0.004 -0.104,0.011 -0.15,0.025 0.247,-0.025 0.637,0.118 0.802,-0.043 0.011,-0.007 -0.061,-0.004 -0.086,0 0.039,-0.036 0.132,-0.018 0.15,-0.068 0.097,-10e-4 0.151,-0.023 0.251,-0.044 z"
                 style="fill:#ff9955;fill-opacity:1"
                 inkscape:connector-curvature="0" />
              <path
                 id="path4598"
                 d="m 54.506,28.364 c -0.072,-0.036 -0.118,-0.093 -0.261,-0.075 0.064,0.05 0.179,0.136 0.261,0.075 z"
                 style="fill:#ff9955;fill-opacity:1"
                 inkscape:connector-curvature="0" />
              <path
                 id="path4600"
                 d="m 52.369,26.192 c 0.032,-0.011 0.068,-0.011 0.1,-0.004 -0.082,0.018 -0.175,0.057 -0.115,0.057 0.05,0 0.143,-0.014 0.172,-0.036 -0.104,0.007 -0.086,0.004 0.054,-0.011 0,-0.007 -0.007,-0.011 -0.011,-0.014 0.011,0 0.021,0 0.036,-0.004 -0.071,-0.002 -0.196,-0.01 -0.236,0.012 z"
                 style="fill:#ff9955;fill-opacity:1"
                 inkscape:connector-curvature="0" />
              <polygon
                 id="polygon4602"
                 points="53.847,26.124 53.869,26.12 53.858,26.12 "
                 style="fill:#ff9955;fill-opacity:1" />
              <path
                 id="path4604"
                 d="m 57.763,26.747 c 0.286,0.029 0.444,0.15 0.748,0.014 0.021,-0.036 -0.1,-0.1 -0.018,-0.122 -0.039,-0.004 -0.358,-0.039 -0.361,0 -0.043,-0.025 -0.097,0.011 -0.129,-0.032 -0.032,0.018 -0.125,0.054 -0.086,-0.039 -0.043,-0.004 -0.107,0.014 -0.15,0.021 -0.004,0.014 0.118,0.075 0.115,0.072 -0.036,0.004 -0.115,0.007 -0.154,0.004 0.014,0.021 0.075,0.007 0.115,0.018 -0.018,0.021 -0.036,0.032 -0.054,0.057 -0.005,-10e-4 -0.016,0.007 -0.026,0.007 z"
                 style="fill:#ff9955;fill-opacity:1"
                 inkscape:connector-curvature="0" />
              <path
                 id="path4606"
                 d="m 54.388,26.414 c 0.072,0 0.208,0 0.272,-0.029 -0.082,-0.018 -0.272,-0.075 -0.354,-0.011 -0.026,0.015 0.075,0.04 0.082,0.04 z"
                 style="fill:#ff9955;fill-opacity:1"
                 inkscape:connector-curvature="0" />
              <path
                 id="path4608"
                 d="m 67.318,34.173 c -0.354,0.064 -0.49,0.168 -0.583,-0.261 -0.072,-0.297 -0.58,-0.501 -0.648,-0.816 -0.054,-0.236 -0.107,-0.322 -0.265,-0.497 -0.147,-0.165 -0.093,-0.447 -0.211,-0.648 -0.1,-0.175 -0.125,-0.358 -0.222,-0.537 -0.14,-0.268 -0.426,-0.626 -0.44,-0.927 0.089,0.1 0.197,0.372 0.301,0.39 0.072,-0.293 0.075,-0.369 -0.036,-0.651 -0.193,0.054 -0.365,-0.068 -0.544,0 -0.243,0.093 -0.44,0.061 -0.687,-0.029 -0.179,-0.064 -0.884,-0.476 -0.873,0.004 0.011,0.555 -0.655,-0.168 -0.82,-0.222 -0.19,-0.061 -0.494,0.047 -0.494,-0.276 0,-0.179 0.075,-0.315 0.079,-0.476 -0.057,0.05 -0.1,0.047 -0.147,-0.011 -0.079,-0.125 -0.197,0.039 -0.283,0.043 -0.186,0.007 -0.354,0 -0.533,0.007 -0.279,0.011 -0.565,0.157 -0.805,0.29 -0.293,0.172 -0.548,-0.079 -0.716,0.147 0.004,0 0.004,0 0.007,0 -0.147,0.193 -0.315,0.365 -0.458,0.565 -0.097,0.136 -0.064,0.311 -0.111,0.465 -0.047,0.147 -0.208,0.283 -0.347,0.333 -0.247,0.089 -0.347,0.372 -0.451,0.598 -0.082,0.183 -0.15,0.354 -0.247,0.526 -0.129,0.229 0.047,0.594 0.036,0.837 -0.007,0.175 -0.072,0.379 -0.165,0.526 -0.089,0.147 0.029,0.319 0.025,0.508 -0.004,0 -0.011,0 -0.018,0 0.097,0.154 0.211,0.293 0.333,0.426 0.215,0.236 0.258,0.551 0.487,0.784 0.172,0.172 0.376,0.447 0.651,0.351 0.125,-0.043 0.225,-0.122 0.369,-0.125 0.115,-0.004 0.204,0.1 0.315,0.097 0.268,-0.007 0.533,-0.383 0.855,-0.39 0.233,-0.004 0.218,0.397 0.419,0.394 0.662,-0.014 0.58,0.458 0.412,0.916 -0.104,0.293 0.183,0.573 0.344,0.78 0.168,0.208 0.186,0.519 0.251,0.769 0.064,0.236 0.175,0.605 0.118,0.852 -0.057,0.243 -0.258,0.419 -0.304,0.669 -0.068,0.351 0.075,0.698 0.222,1.006 0.154,0.293 0.161,0.419 0.197,0.741 0.075,0.701 0.608,1.206 0.601,1.879 0.068,-0.043 0.286,0.093 0.476,-0.004 0.197,-0.104 0.372,-0.057 0.573,-0.075 0.014,-0.082 0.39,-0.218 0.472,-0.322 0.179,-0.247 0.29,-0.533 0.487,-0.766 0.218,-0.254 -0.029,-0.44 0.222,-0.651 0.236,-0.197 0.315,-0.118 0.329,-0.505 0.004,-0.165 -0.308,-0.569 0.032,-0.637 0.039,-0.243 0.279,-0.347 0.465,-0.458 0.526,-0.329 0.118,-0.791 0.336,-1.245 0.075,-0.165 -0.175,-0.361 -0.175,-0.544 0,-0.172 -0.039,-0.344 -0.036,-0.523 0,-0.172 0.147,-0.261 0.183,-0.422 0.129,-0.605 0.651,-0.773 0.97,-1.242 0.276,-0.404 0.82,-1.36 0.612,-1.85 -0.173,0.06 -0.363,0.164 -0.56,0.207 z"
                 style="fill:#ff9955;fill-opacity:1"
                 inkscape:connector-curvature="0" />
              <path
                 id="path4610"
                 d="m 55.096,28.514 c -0.018,0 -0.043,0.004 -0.057,0.011 0.018,-0.05 0.036,-0.079 0.05,-0.107 -0.029,0.011 -0.086,0.007 -0.136,0 -0.018,0.004 -0.039,0.007 -0.061,0.011 l 0.007,-0.014 c -0.029,0 -0.054,0 -0.082,0 0.004,-0.025 0.018,-0.039 0.043,-0.047 -0.05,-0.021 -0.097,-0.018 -0.143,0.007 0.004,-0.007 0.251,-0.211 0.186,-0.211 -0.2,0 -0.347,0.283 -0.537,0.34 0,0.011 0.014,0.018 0.029,0.018 -0.021,0.05 -0.097,0.036 -0.118,0.079 -0.004,0.004 0.472,0.039 0.526,0.039 -0.032,0.011 -0.057,0.029 -0.075,0.057 -0.007,0.021 0.208,-0.093 0.204,-0.089 0.093,0.097 0.082,0.233 0.175,-0.011 -0.032,0.014 -0.021,0.021 -0.072,0.018 0.033,-0.068 0.022,-0.029 0.061,-0.101 z"
                 style="fill:#ff9955;fill-opacity:1"
                 inkscape:connector-curvature="0" />
              <path
                 id="path4612"
                 d="m 57.748,26.356 c -0.014,0 -0.025,-0.007 -0.021,-0.018 0.054,-0.004 0.115,-0.014 0.14,-0.036 -0.039,0.004 -0.075,0 -0.107,-0.021 0.014,-0.039 0.086,0.011 0.107,-0.043 0.021,-0.057 -0.111,-0.05 -0.104,-0.064 0.029,-0.072 0.243,0.029 0.272,-0.043 -0.036,-0.018 -0.072,-0.029 -0.107,-0.032 0.014,0 0.039,-0.004 0.054,-0.007 -0.061,-0.018 -0.125,-0.021 -0.19,-0.011 0.075,-0.039 0.483,-0.129 0.515,-0.186 0.111,-0.004 0.326,-0.018 0.358,-0.068 0.007,-0.014 -1.002,0.107 -1.059,0.115 0.011,-0.011 0.222,-0.075 0.225,-0.082 0.004,-0.004 -0.039,-0.004 -0.1,0.004 0.075,-0.011 0.136,-0.032 0.172,-0.064 -0.533,-0.011 -1.117,-0.043 -1.636,0.079 0.004,0.004 0.018,0.004 0.029,0.011 -0.025,0 -0.054,0.004 -0.079,0.011 0.025,0.018 0.054,0.025 0.086,0.025 -0.047,0.004 -0.254,-0.039 -0.279,0 -0.004,0.004 0,0.011 0.004,0.014 -0.043,-0.014 -0.1,-0.025 -0.122,0.011 -0.075,0.004 -0.601,0.025 -0.659,0.136 0.032,0.011 0.064,0.014 0.097,0.007 -0.057,0.107 -0.297,0.014 -0.344,0.107 -0.014,0.032 0.218,0.018 0.236,0.014 -0.047,0.054 -0.175,-0.007 -0.215,0.054 0.032,-0.007 0.064,-0.004 0.093,0.011 -0.007,0.007 -0.018,0.007 -0.032,0.014 0.032,0.018 0.068,0.021 0.1,0.014 -0.004,0 -0.007,-0.004 -0.011,-0.004 0.1,-0.029 0.483,-0.029 0.412,0.15 0.047,0.011 0.047,0.029 -0.004,0.057 0.043,-0.004 0.154,0.061 0.172,0.064 -0.032,0.05 -0.1,-0.011 -0.147,0 -0.004,0.032 0.115,0.036 0.165,0.047 -0.054,0.064 -0.193,0.079 -0.218,0.165 0.011,-0.004 0.021,-0.004 0.032,0 -0.068,0.093 0.047,0.107 0.075,0.143 -0.147,0.075 0.251,0.258 0.308,0.265 0.086,0.007 0.279,-0.322 0.44,-0.351 0,0.007 -0.004,0.014 -0.007,0.025 0.175,0.004 0.265,-0.097 0.419,-0.14 0.236,0.004 0.483,-0.036 0.705,-0.115 -0.054,-0.007 -0.293,-0.004 -0.279,-0.047 0.075,-0.007 0.036,-0.007 0.047,-0.047 0.036,0.007 0.29,0.104 0.308,0.05 0.025,-0.086 -0.186,-0.122 -0.225,-0.143 0.025,-0.075 0.179,0.129 0.222,0 -0.043,-0.021 -0.086,-0.043 -0.132,-0.054 0.084,0.005 0.213,0.066 0.284,-0.017 z"
                 style="fill:#ff9955;fill-opacity:1"
                 inkscape:connector-curvature="0" />
              <path
                 id="path4614"
                 d="m 54.549,28.672 c 0.004,-0.011 -0.014,-0.018 -0.014,-0.032 -0.064,0.025 -0.115,0.064 -0.161,0.115 -0.021,0.043 0.157,0.036 0.186,-0.029 -0.104,0 -0.029,-0.015 -0.011,-0.054 z"
                 style="fill:#ff9955;fill-opacity:1"
                 inkscape:connector-curvature="0" />
              <path
                 id="path4616"
                 d="m 52.795,26.453 c -0.075,0.05 -0.14,0 -0.208,0.043 0.089,0.125 0.333,0.043 0.429,-0.014 -0.011,0 -0.043,0 -0.054,-0.004 0.068,-0.047 -0.025,-0.014 -0.061,-0.014 0.05,-0.007 0.097,-0.025 0.143,-0.043 -0.009,0.003 -0.446,0.025 -0.249,0.032 z"
                 style="fill:#ff9955;fill-opacity:1"
                 inkscape:connector-curvature="0" />
              <path
                 id="path4618"
                 d="m 52.742,26.321 c -0.039,0.007 -0.075,0.014 -0.115,0.032 0.021,0 0.025,0 0.047,0 0.035,0.003 0.057,-0.007 0.068,-0.032 z"
                 style="fill:#ff9955;fill-opacity:1"
                 inkscape:connector-curvature="0" />
              <path
                 id="path4620"
                 d="m 54.495,26.274 c 0.014,-0.007 0.032,-0.011 0.05,-0.011 -0.007,-0.05 -0.784,0.018 -0.734,0 -0.018,-0.007 -0.104,0.007 -0.079,-0.014 0.032,0 0.068,-0.004 0.1,-0.004 -0.011,-0.039 -0.412,-0.043 -0.451,-0.018 0.039,0.018 0.082,0.025 0.129,0.025 0.05,-0.032 0.079,-0.018 0.089,0.032 -0.165,0.029 0.15,0.036 0.197,0.032 0.172,-0.097 0.537,0.079 0.734,-0.043 10e-4,0.001 -0.017,0.005 -0.035,0.001 z"
                 style="fill:#ff9955;fill-opacity:1"
                 inkscape:connector-curvature="0" />
              <path
                 id="path4622"
                 d="m 52.147,26.285 c 0.025,0.004 0.05,-0.004 0.075,-0.018 -0.029,0.004 -0.054,0.004 -0.079,0.004 -0.017,0.01 -0.006,0.014 0.004,0.014 z"
                 style="fill:#ff9955;fill-opacity:1"
                 inkscape:connector-curvature="0" />
              <path
                 id="path4624"
                 d="m 53.235,26.324 c 0.004,0 0.301,0.011 0.222,-0.032 -0.057,-0.014 -0.111,-0.011 -0.165,0.018 -0.006,0 -0.042,0.007 -0.057,0.014 z"
                 style="fill:#ff9955;fill-opacity:1"
                 inkscape:connector-curvature="0" />
              <path
                 id="path4626"
                 d="m 53.039,26.246 c -0.011,0.014 0.021,0.011 0.064,0.011 -0.057,0.036 -0.104,-0.014 -0.154,0.018 0,0.004 0.007,0.007 0.018,0.014 0.047,-0.004 0.089,-0.004 0.122,0.004 -0.032,0.011 -0.104,0.018 -0.14,0.039 0.057,-0.036 0.322,0.05 0.322,-0.086 -0.003,0 -0.215,-0.004 -0.232,0 z"
                 style="fill:#ff9955;fill-opacity:1"
                 inkscape:connector-curvature="0" />
              <path
                 id="path4628"
                 d="M 77.192,22.327 H 38.594 V 47.411 H 77.192 V 22.327 z m -9.541,8.85 c -0.021,-0.025 -0.054,-0.054 -0.079,-0.079 0.068,0.172 0.129,0.347 0.186,0.523 0.004,-0.018 0.011,-0.039 0.036,-0.039 0.05,0.1 -0.018,0.218 0.097,0.29 0.032,0.111 0.05,0.229 0.075,0.34 -0.057,-0.204 -0.147,-0.39 -0.215,-0.591 -0.004,0.018 -0.007,0.036 -0.032,0.039 -0.075,-0.2 -0.319,-0.304 -0.419,-0.508 -0.175,-0.354 0.1,-0.211 0.265,-0.054 -0.036,-0.082 -0.057,-0.172 -0.089,-0.254 0.046,0.115 0.125,0.215 0.175,0.333 z m -0.816,-1.668 c -0.011,0 -0.021,0.004 -0.032,0.007 0.025,0.036 0.036,0.079 0.061,0.122 -0.079,-0.143 -0.172,-0.276 -0.254,-0.412 0.064,0.104 0.157,0.183 0.225,0.283 z m -1.868,-2.29 c 0.075,0.072 0.122,0.168 0.2,0.243 -0.236,-0.229 -0.44,-0.494 -0.698,-0.701 0.183,0.164 0.351,0.329 0.498,0.458 z M 51.972,26.324 c 0.004,0 0.007,0 0.014,0.004 -0.011,0 -0.021,0.004 -0.029,0.007 0.004,-0.004 0.008,-0.007 0.015,-0.011 z m -2.555,2.477 c 0.021,-0.029 0.054,-0.054 0.075,-0.082 -0.025,0.036 -0.061,0.068 -0.086,0.104 -0.44,0.612 -0.809,1.27 -1.106,1.961 0.297,-0.694 0.669,-1.353 1.106,-1.961 0.004,-0.008 0.007,-0.015 0.011,-0.022 z m 3.217,15.092 c 0.011,-0.029 0.032,-0.047 0.064,-0.047 0.021,0.047 0.054,0.089 0.089,0.136 -0.049,-0.032 -0.099,-0.061 -0.153,-0.089 z m 14.53,-4.223 c -0.054,0.047 -0.093,0.104 -0.107,0.215 -1.775,3.235 -5.214,5.429 -9.165,5.429 -1.381,0 -2.695,-0.272 -3.905,-0.755 -0.047,-0.14 -0.54,-0.236 -0.261,-0.404 0.183,-0.086 0.036,-0.329 -0.007,-0.426 0.032,-0.007 0.193,0.043 0.147,-0.061 0.032,0.068 -0.44,-0.15 -0.251,-0.2 0.1,-0.029 0.347,0.05 0.276,-0.115 0.004,-0.082 -0.157,-0.258 -0.004,-0.297 0.132,-0.032 0.347,-0.061 0.412,-0.204 0.179,-0.401 -0.2,-0.29 -0.301,-0.555 0.021,0.057 0.555,-0.025 0.591,-0.197 0.05,-0.258 0.143,-0.483 0.179,-0.741 0,0 0,0 0,0.004 0,-0.1 0.029,-0.186 0.093,-0.261 -0.036,-0.111 -0.075,-0.222 -0.104,-0.336 -0.025,-0.132 0.154,-0.322 0.247,-0.383 0.347,-0.218 0.404,-0.361 0.508,-0.759 0.032,-0.233 -0.204,-0.759 -0.125,-0.916 0.111,-0.208 0.551,-1.056 0.089,-1.156 -0.218,-0.043 -0.34,-0.175 -0.544,-0.229 -0.204,-0.061 -0.429,0.007 -0.605,0.025 -0.036,-0.161 -0.089,-0.154 -0.229,-0.215 -0.376,-0.157 -0.2,0.19 -0.394,0.208 -0.193,0.021 -0.412,-0.229 -0.258,-0.429 0.1,-0.136 -0.265,-0.662 -0.48,-0.644 -0.186,0.004 -0.673,-0.039 -0.787,-0.208 -0.143,-0.215 -0.655,-0.276 -0.709,-0.512 -0.136,0.029 -0.297,0.118 -0.39,0.082 -0.075,-0.025 -0.301,0.004 -0.358,-0.057 -0.072,-0.082 -0.222,-0.193 -0.347,-0.186 0.011,0.064 0.082,0.032 0.115,0.097 -0.351,0.021 -0.093,0.372 -0.161,0.379 -0.154,0.007 -0.111,-0.322 -0.111,-0.39 0.043,-0.036 0.05,-0.072 0.018,-0.104 -0.064,-0.086 -0.115,0.064 -0.161,0.082 -0.215,0.093 -0.565,0.29 -0.512,0.576 -0.268,0.111 0,0.458 0.047,0.666 -0.025,0.05 -0.007,0.079 0.05,0.1 0.004,0.218 -0.29,0.451 -0.293,0.666 -0.004,0.251 -0.075,0.283 0.154,0.404 0,0.15 -0.161,0.222 -0.118,0.39 0.047,0.183 0.204,0.19 0.283,0.297 0.157,0.229 0.358,0.472 0.555,0.687 0.236,0.254 0.297,0.583 0.68,0.655 0.301,0.039 0.637,0.225 0.755,0.508 0.111,0.258 0.15,0.523 0.24,0.787 0.043,0.276 0.018,0.755 0.186,0.977 0.157,0.383 0.183,0.623 0.183,1.009 0,0.197 0.115,0.222 0.179,0.361 0.05,0.104 0,0.2 0.061,0.29 -3.038,-1.825 -5.071,-5.15 -5.071,-8.954 0,-0.633 0.079,-1.245 0.186,-1.847 -0.004,0 -0.004,-0.018 -0.011,-0.018 0.004,-0.021 0.014,-0.043 0.018,-0.068 -0.004,0.029 -0.004,0.057 -0.007,0.086 0.075,0.032 0.107,0.315 0.208,0.34 0.086,0.021 0.175,-0.225 0.225,-0.032 0.072,0.018 0.039,0.354 0.064,0.422 0.072,0.179 0.204,0.276 0.344,0.322 -0.043,0.15 -0.018,0.279 -0.007,0.433 0.011,0.168 -0.129,0.34 -0.086,0.497 0.014,0.007 0.025,0.011 0.039,0.014 0,-0.018 0.011,-0.054 0.029,-0.075 0.157,0.054 0.054,0.859 0.265,0.945 0.104,0.043 0.125,-0.472 0.344,-0.394 0.107,0.039 0.018,0.315 0.029,0.39 0,0.004 0.175,-0.157 0.19,-0.179 -0.036,-0.132 -0.043,-0.487 -0.276,-0.387 -0.49,0.211 -0.279,-0.644 -0.179,-0.902 0.115,-0.293 0.537,-0.834 -0.032,-0.87 -0.472,-0.029 0.072,-0.469 0.132,-0.573 0.047,-0.054 0.086,-0.097 0.129,-0.19 0.064,-0.14 0.183,-0.24 0.251,-0.379 -0.533,-0.097 -0.555,0.598 -1.045,0.49 -0.361,-0.075 0.419,-1.374 0.458,-1.467 0,0 0.004,0 0.007,0 0.154,-0.268 0.347,-0.39 0.608,-0.533 0.179,-0.097 0.301,0.172 0.433,0.111 -0.021,-0.043 0.039,-0.086 0.086,-0.161 -0.029,0.014 -0.021,0.014 -0.05,-0.004 0.075,-0.025 0.147,-0.007 0.215,-0.025 -0.021,0.043 0.426,0.115 0.429,0.125 0.018,0.068 -0.286,0.837 -0.125,0.859 0.179,0.021 0.322,-0.515 0.333,-0.633 0.054,-0.48 0.412,-0.651 0.812,-0.823 0,-0.004 -0.004,-0.004 -0.004,-0.007 0.097,-0.068 0.222,-0.079 0.315,-0.154 -0.075,-0.082 0.036,-0.057 0.075,-0.115 -0.018,-0.004 -0.036,-0.011 -0.036,-0.043 0.057,-0.014 0.093,-0.047 0.111,-0.097 -0.007,0 -0.021,0 -0.029,0 -0.011,-0.032 0.111,-0.24 0.14,-0.268 -0.004,0.014 -0.054,0.218 -0.061,0.215 0.14,0.004 0.165,-0.229 0.236,-0.272 -0.025,-0.057 0.372,-0.2 0.462,-0.222 -0.021,-0.029 -0.115,-0.004 -0.147,-0.004 0.157,-0.072 0.372,-0.061 0.519,-0.115 -0.236,0.004 0.193,-0.351 0.333,-0.319 0.136,0.029 0.415,-0.165 0.583,-0.168 -0.032,0.047 -0.021,0.064 0.039,0.054 -0.222,0.011 -0.401,0.297 -0.233,0.208 0.1,-0.054 0.558,-0.125 0.598,-0.211 0.025,-0.05 -0.505,-0.014 -0.268,-0.308 -0.021,0 -0.061,-0.011 -0.1,-0.011 0.068,-0.043 0.193,-0.021 0.236,-0.1 0.054,-0.093 -0.608,0.057 -0.641,0.061 0.272,-0.218 1.585,-0.172 1.457,-0.612 -0.039,0.011 -0.465,0.125 -0.476,0.072 0.097,-0.029 0.34,-0.05 0.394,-0.1 0.032,-0.039 -0.34,-0.004 -0.268,-0.129 l 0.004,-0.007 c -0.086,0 -0.118,-0.032 -0.154,-0.054 0.2,-0.064 -0.004,-0.354 -0.143,-0.29 0.011,0.014 -0.007,0.057 0.014,0.064 -0.025,-0.011 -0.047,-0.025 -0.061,-0.047 0.011,-0.018 0.032,-0.007 0.047,-0.018 -0.018,-0.018 -0.061,-0.018 -0.021,-0.086 -0.107,0.197 -0.544,0.072 -0.691,0 -0.508,-0.243 -0.354,0.093 -0.734,0.179 0.007,0.186 0.265,0.186 -0.089,0.326 -0.283,0.115 -0.115,0.175 -0.261,0.336 -0.082,0 -0.093,-0.011 -0.122,-0.021 0,0 0.004,0 0,0 -0.025,0 -0.047,-0.004 -0.075,-0.011 0.004,0.007 0.054,0.007 0.068,0.011 0.021,-0.032 -0.032,-0.036 -0.072,-0.029 0.011,-0.057 0.157,-0.147 0.061,-0.215 -0.297,0.007 -0.261,-0.208 -0.633,-0.193 0.104,-0.104 0.118,-0.165 -0.036,-0.14 0.2,-0.136 0.587,-0.254 0.744,-0.397 -0.014,-0.011 -0.029,-0.021 -0.047,-0.025 0.183,0.014 0.49,-0.018 0.612,-0.122 -0.086,-0.007 -0.197,0.004 -0.183,-0.043 0.082,0.029 0.19,0.029 0.297,0.011 -0.097,0.039 -0.229,0.115 -0.279,0.154 0.025,0 0.089,-0.011 0.129,-0.004 -0.025,0.018 -0.05,0.036 -0.014,0.032 0.147,-0.007 0.387,-0.032 0.53,-0.075 -0.007,-0.018 -0.075,-0.007 -0.104,-0.025 -0.007,-0.004 0.014,-0.018 0.011,-0.029 -0.014,-0.036 -0.154,-0.057 -0.19,-0.043 0,-0.011 0,-0.018 0,-0.025 0.036,-0.007 0.068,-0.018 0.104,-0.025 -0.014,0.007 -0.004,0.021 0.032,0.021 -0.004,-0.011 0.011,-0.032 -0.029,-0.021 0.2,-0.057 0.394,-0.15 0.487,-0.233 -0.05,0 -0.107,-0.021 -0.157,-0.029 0.072,0 0.132,-0.004 0.168,-0.004 -0.05,0.039 0.186,-0.021 0.247,0.011 0,0 -0.004,0 -0.007,0 0.018,0.004 0.039,0.011 0.057,0.029 -0.025,0.007 -0.05,0.014 -0.075,0.018 0.004,-0.004 0.15,0 0.183,0.018 -0.061,-0.004 -0.118,0.007 -0.168,0.043 0,0 0.197,0.057 0.2,-0.021 0.125,0.089 -0.247,0.157 -0.147,0.193 -0.132,0.061 -0.379,0.018 -0.472,0.143 -0.014,0.021 0.412,-0.025 0.451,-0.004 0.097,0.05 0.29,0.165 0.451,0.129 0.125,-0.029 -0.115,-0.147 -0.115,-0.143 0.222,-0.039 0.211,0.072 0.268,-0.118 -0.075,0.011 -0.097,-0.064 -0.15,-0.057 0.014,-0.036 0.032,-0.014 0.043,-0.039 0.1,0.014 0.308,0.072 0.326,-0.057 0,-0.007 -0.276,-0.1 -0.293,-0.111 0.025,-0.014 0.036,-0.018 0.068,-0.025 -0.021,-0.011 -0.05,-0.014 -0.075,-0.011 0.018,-0.011 0.043,-0.011 0.072,-0.014 -0.021,-0.021 -0.047,-0.029 -0.072,-0.021 0.004,-0.007 0.004,-0.011 0.007,-0.018 -0.225,-0.011 -0.426,-0.079 -0.669,-0.082 0.011,0 0.039,-0.047 0.036,-0.054 -0.036,-0.097 -0.598,0.093 -0.465,0.036 -0.064,0 0.14,-0.054 0.183,-0.061 -0.118,-0.007 -0.225,-0.007 -0.347,0.018 0.043,-0.014 0.082,-0.021 0.122,-0.043 -0.251,0.011 -0.344,0.007 -0.53,0.14 0.061,0 0.118,-0.011 0.168,-0.047 -0.011,0 -0.021,0 -0.032,0 0.064,-0.029 0.175,-0.021 0.236,-0.043 -0.039,0.021 -0.265,0.047 -0.229,0.115 0,0 0.157,0.004 0.175,0.011 -0.05,0.043 -0.115,0.05 -0.186,0.018 -0.061,0.05 0.451,0.057 0.455,0.057 -0.064,0.014 -0.315,0.243 -0.401,0.161 -0.011,-0.057 0.018,-0.079 0.089,-0.079 0.061,-0.05 -0.247,0.021 -0.229,0.021 0.075,-0.064 -0.064,-0.036 0.05,-0.072 -0.025,-0.011 -0.104,0.004 -0.111,-0.014 0.039,-0.011 0.075,-0.021 0.111,-0.036 0.082,-0.061 -0.268,-0.054 -0.365,0.018 -0.025,0.018 0.129,0.032 0.1,0.054 -0.025,0.014 -0.05,0.029 -0.075,0.043 0.029,-0.007 0.047,-0.007 0.075,-0.014 -0.039,0.057 -0.183,0.036 -0.272,0.104 -0.057,0.007 -0.047,0 -0.025,-0.011 -0.129,0.032 -0.48,-0.011 -0.698,-0.018 -0.082,0.068 -0.225,0.079 -0.276,0.064 -0.161,-0.054 -0.297,-0.007 -0.422,0.068 -0.111,0.093 -0.229,0.179 -0.336,0.276 0.025,-0.021 0.043,-0.054 0.072,-0.075 0.079,-0.072 0.168,-0.143 0.265,-0.2 0.029,-0.025 0.061,-0.05 0.089,-0.075 -0.018,0 -0.032,0.004 -0.047,0.007 0.021,-0.018 0.047,-0.036 0.075,-0.057 0.014,0 0.007,0.014 0.011,0.021 0.014,-0.014 0.032,-0.029 0.05,-0.043 -0.014,0 -0.018,0 -0.032,0 0.021,-0.014 0.039,-0.007 0.057,-0.018 0.032,-0.025 0.061,-0.054 0.093,-0.075 -0.007,0 -0.021,0 -0.029,0 0.029,-0.025 0.143,-0.115 0.222,-0.161 0.007,-0.004 0.011,-0.011 0.018,-0.014 -0.004,0 -0.011,0 -0.014,0 0.018,-0.014 0.039,-0.029 0.061,-0.043 v 0.004 c 0.036,-0.025 0.079,-0.047 0.115,-0.072 0.043,0 0.079,0 0.122,-0.007 0.011,-0.007 0.032,-0.014 0.05,-0.014 v 0.004 c 0.186,-0.043 0.458,0.039 0.63,-0.061 0.018,-0.011 -0.222,0.004 -0.104,-0.054 -0.021,0 -0.243,0.039 -0.14,0.043 -0.011,0.011 -0.029,0.014 -0.05,0.018 0.014,-0.004 0.029,0.007 0.043,0 -0.025,0 -0.036,0 -0.043,0 l 0,0 c -0.115,0.018 -0.222,-0.029 -0.329,-0.018 -0.011,0.004 -0.007,0.007 0,0.007 -0.021,0 -0.043,0.004 -0.064,0.011 0.029,-0.018 0.061,-0.036 0.089,-0.057 h 0.004 c 0.061,-0.004 0.075,-0.011 0.039,-0.021 -0.007,0 -0.011,0.007 -0.021,0.007 1.664,-1.124 3.643,-1.822 5.801,-1.822 2.054,0 3.969,0.598 5.59,1.625 -0.147,-0.068 -0.286,-0.115 -0.419,-0.129 0.029,-0.097 -0.301,-0.036 -0.208,-0.021 -0.132,0.021 -0.286,-0.021 -0.408,0.021 0.014,0.004 0.007,0.004 0.029,0.011 -0.043,-0.007 -0.089,0 -0.14,0.014 0.036,0 0.036,0 0.061,0.004 -0.007,0 -0.279,-0.021 -0.286,0.011 0,0 0.039,0.004 0.054,0.007 -0.007,0 -0.05,0.007 -0.064,0.014 0.082,0.004 0.111,-0.011 0.197,-0.011 -0.021,0.064 -0.626,0.311 -0.705,0.315 0.036,0.004 0.054,0.011 0.089,0.018 -0.118,-0.014 -0.644,0.089 -0.369,0.276 -0.025,0.011 -0.047,0.029 -0.061,0.054 0.05,-0.007 0.05,-0.007 0.1,-0.004 0.007,0.064 -0.061,0.021 -0.061,0.064 0.014,0.14 0.397,0.039 0.447,0.014 0.132,-0.082 0.168,0.004 0.243,0.118 0.036,0.047 0.154,0.286 0.218,0.297 0.072,0.004 0.376,-0.075 0.372,-0.172 -0.261,-0.047 0.15,-0.215 0.147,-0.236 -0.032,-0.122 -0.197,-0.082 -0.218,-0.218 -0.025,-0.129 0.394,-0.093 0.369,-0.175 0.036,-0.05 0.336,-0.208 0.404,-0.025 0.004,0.014 -0.372,0.15 -0.401,0.147 0.039,0.05 0.032,0.104 0.107,0.125 -0.14,0.168 0.773,0.147 0.845,0.222 -0.19,0.072 -0.401,-0.068 -0.58,0.025 -0.057,0.029 0.15,0.107 0.15,0.168 0,-0.072 -0.472,0.036 -0.433,0.293 -0.047,0 -0.097,-0.004 -0.143,-0.004 0,-0.004 0.004,-0.018 0.011,-0.029 -0.118,-0.043 -0.598,0.125 -0.576,-0.021 -0.125,-0.021 -0.272,-0.011 -0.404,-0.025 -0.007,0.032 0,-0.011 0.007,-0.068 0.029,0.011 0.075,-0.004 0.079,0.036 0.011,-0.061 -0.021,-0.075 -0.068,-0.086 0.007,-0.05 0.021,-0.093 0.036,-0.089 -0.014,-0.032 -0.057,-0.057 -0.064,-0.129 -0.251,0.097 -0.251,0.097 -0.118,0.329 0.064,0.104 -0.183,0.093 -0.251,0.086 -0.229,-0.018 -0.204,0.19 -0.397,0.229 -0.229,0.05 -0.272,0.15 -0.537,0.129 0,0.047 0.021,0.075 0.025,0.115 -0.039,0.007 -0.379,-0.061 -0.379,0.014 0,0.111 0.583,0.172 0.455,0.383 0,0 0.007,0 0.007,-0.004 0.014,0.293 -0.068,0.218 -0.279,0.243 -0.193,-0.014 -0.372,-0.064 -0.565,-0.079 -0.222,-0.014 -0.129,0.129 -0.129,0.236 0,0.075 -0.15,0.644 0.021,0.659 0.168,0.011 0.225,-0.05 0.336,0.111 0.079,0.129 0.34,-0.072 0.48,-0.014 0.118,-0.047 0.247,-0.143 0.329,-0.258 -0.272,-0.122 0.358,-0.39 0.365,-0.415 -0.118,-0.304 0.336,-0.064 0.476,-0.136 0.283,-0.143 0.322,-0.061 0.53,0.161 -0.043,-0.089 0.923,0.666 0.623,0.637 0.021,0.129 0.183,-0.122 0.186,-0.097 -0.036,-0.211 -0.147,-0.183 0.143,-0.107 -0.004,-0.175 -0.308,-0.14 -0.336,-0.297 -0.204,-0.018 -0.519,-0.286 -0.54,-0.48 -0.018,-0.122 0.591,0.297 0.641,0.301 0.029,0.14 0.322,0.168 0.358,0.379 0.025,0.125 0.276,0.372 0.39,0.383 -0.068,0.129 0.029,0.204 0.175,0.222 -0.021,-0.014 -0.064,-0.179 -0.068,-0.208 0.068,0.057 0.136,0.097 0.215,0.061 -0.129,-0.107 -0.19,-0.215 -0.301,-0.322 -0.021,-0.097 0.168,0.036 0.168,0.036 0.004,-0.032 0,-0.057 -0.021,-0.089 0.111,-0.018 0.132,-0.068 0.243,0.011 0.154,0.111 0.129,-0.032 0.268,-0.011 0,0.018 0.039,0.043 0.047,0.057 -0.061,0.021 -0.404,-0.036 -0.372,0.097 0.021,0.093 0.168,0.032 0.021,0.183 0.132,0.068 0.208,0.147 0.319,0.24 -0.004,0.007 -0.018,0.018 -0.032,0.021 0.379,0.036 0.687,0.19 1.063,0.089 0.047,0.175 0.007,0.308 -0.004,0.483 -0.004,0.05 0.011,0.222 -0.032,0.258 -0.018,0.011 0.157,0.336 0.161,0.404 0.018,0.458 0.701,0.712 0.802,1.131 0.057,0.254 0.265,0.404 0.412,0.605 0.204,0.265 0.272,0.462 0.415,0.748 0.261,0.515 0.605,0.14 1.016,0 -0.029,-0.183 -0.029,-0.372 -0.068,-0.555 0.039,0.179 0.089,0.351 0.118,0.53 -0.018,0.004 -0.036,0.018 -0.061,0.021 0.075,0.494 0.175,0.981 0.175,1.492 0.013,1.722 -0.41,3.354 -1.158,4.789 z"
                 style="fill:#ff9955;fill-opacity:1"
                 inkscape:connector-curvature="0" />
              <path
                 id="path4630"
                 d="m 52.538,26.711 c -0.175,0.029 0.157,0.029 0.208,0.014 0.053,-0.118 -0.276,0 -0.208,-0.014 z"
                 style="fill:#ff9955;fill-opacity:1"
                 inkscape:connector-curvature="0" />
              <rect
                 id="rect4632"
                 height="25.087999"
                 width="38.594002"
                 style="fill:#ff9955;fill-opacity:1"
                 y="62.292"
                 x="0" />
              <polygon
                 id="polygon4634"
                 points="13.507,89.595 9.649,93.456 28.946,93.456 25.084,89.595 "
                 style="fill:#ff9955;fill-opacity:1" />
              <rect
                 id="rect4636"
                 height="25.087999"
                 width="38.591"
                 style="fill:#ff9955;fill-opacity:1"
                 y="62.292"
                 x="77.192001" />
              <polygon
                 id="polygon4638"
                 points="90.699,89.595 86.837,93.456 106.134,93.456 102.276,89.595 "
                 style="fill:#ff9955;fill-opacity:1" />
              <path
                 id="path4640"
                 d="m 33.799,43.002 c 0.458,0 0.916,-0.175 1.267,-0.523 l 0.39,-0.39 c 0.698,-0.698 0.698,-1.832 0,-2.53 -0.698,-0.698 -1.832,-0.698 -2.53,0 l -0.39,0.39 c -0.698,0.698 -0.698,1.832 0,2.53 0.346,0.347 0.805,0.523 1.263,0.523 z"
                 style="fill:#ff9955;fill-opacity:1"
                 inkscape:connector-curvature="0" />
              <path
                 id="path4642"
                 d="m 29.547,47.253 c 0.458,0 0.916,-0.175 1.267,-0.523 l 0.723,-0.723 c 0.698,-0.698 0.698,-1.832 0,-2.53 -0.698,-0.698 -1.832,-0.698 -2.53,0 L 28.284,44.2 c -0.698,0.698 -0.698,1.832 0,2.53 0.347,0.348 0.805,0.523 1.263,0.523 z"
                 style="fill:#ff9955;fill-opacity:1"
                 inkscape:connector-curvature="0" />
              <path
                 id="path4644"
                 d="m 21.036,55.764 c 0.458,0 0.916,-0.175 1.267,-0.523 l 0.727,-0.727 c 0.698,-0.698 0.698,-1.832 0,-2.53 -0.698,-0.698 -1.832,-0.698 -2.53,0 l -0.727,0.727 c -0.698,0.698 -0.698,1.832 0,2.53 0.347,0.348 0.805,0.523 1.263,0.523 z"
                 style="fill:#ff9955;fill-opacity:1"
                 inkscape:connector-curvature="0" />
              <path
                 id="path4646"
                 d="m 25.292,51.509 c 0.458,0 0.916,-0.175 1.267,-0.523 l 0.727,-0.727 c 0.698,-0.698 0.698,-1.832 0,-2.53 -0.698,-0.698 -1.832,-0.698 -2.53,0 l -0.727,0.727 c -0.698,0.698 -0.698,1.832 0,2.53 0.347,0.347 0.805,0.523 1.263,0.523 z"
                 style="fill:#ff9955;fill-opacity:1"
                 inkscape:connector-curvature="0" />
              <path
                 id="path4648"
                 d="m 17.118,59.679 c 0.458,0 0.916,-0.175 1.267,-0.523 l 0.39,-0.39 c 0.698,-0.698 0.698,-1.832 0,-2.53 -0.698,-0.698 -1.832,-0.698 -2.53,0 l -0.39,0.39 c -0.698,0.698 -0.698,1.832 0,2.53 0.35,0.351 0.805,0.523 1.263,0.523 z"
                 style="fill:#ff9955;fill-opacity:1"
                 inkscape:connector-curvature="0" />
              <path
                 id="path4650"
                 d="m 80.717,42.476 c 0.354,0.351 0.809,0.523 1.267,0.523 0.455,0 0.916,-0.175 1.267,-0.523 0.698,-0.698 0.698,-1.832 0,-2.53 l -0.39,-0.39 c -0.694,-0.698 -1.832,-0.698 -2.53,0 -0.694,0.698 -0.694,1.832 0,2.53 l 0.386,0.39 z"
                 style="fill:#ff9955;fill-opacity:1"
                 inkscape:connector-curvature="0" />
              <path
                 id="path4652"
                 d="m 92.757,54.515 0.727,0.727 c 0.351,0.351 0.809,0.523 1.267,0.523 0.458,0 0.916,-0.175 1.267,-0.523 0.698,-0.698 0.698,-1.832 0,-2.53 l -0.727,-0.726 c -0.698,-0.698 -1.836,-0.698 -2.53,0 -0.699,0.696 -0.706,1.827 -0.004,2.529 z"
                 style="fill:#ff9955;fill-opacity:1"
                 inkscape:connector-curvature="0" />
              <path
                 id="path4654"
                 d="m 88.501,50.26 0.727,0.727 c 0.351,0.351 0.812,0.523 1.267,0.523 0.462,0 0.92,-0.175 1.267,-0.523 0.698,-0.698 0.698,-1.832 0,-2.53 L 91.035,47.73 c -0.694,-0.698 -1.832,-0.698 -2.527,0 -0.701,0.697 -0.708,1.832 -0.007,2.53 z"
                 style="fill:#ff9955;fill-opacity:1"
                 inkscape:connector-curvature="0" />
              <path
                 id="path4656"
                 d="m 84.25,46.008 0.719,0.723 c 0.354,0.351 0.812,0.523 1.267,0.523 0.455,0 0.916,-0.175 1.267,-0.523 0.698,-0.698 0.698,-1.832 0,-2.53 L 86.78,43.478 c -0.698,-0.698 -1.836,-0.698 -2.53,0 -0.694,0.698 -0.702,1.828 0,2.53 z"
                 style="fill:#ff9955;fill-opacity:1"
                 inkscape:connector-curvature="0" />
              <path
                 id="path4658"
                 d="m 97.008,58.767 0.39,0.39 c 0.351,0.351 0.812,0.523 1.267,0.523 0.462,0 0.916,-0.175 1.267,-0.523 0.694,-0.698 0.694,-1.832 0,-2.53 l -0.387,-0.39 c -0.698,-0.698 -1.836,-0.698 -2.53,0 -0.701,0.697 -0.708,1.832 -0.007,2.53 z"
                 style="fill:#ff9955;fill-opacity:1"
                 inkscape:connector-curvature="0" />
            </g>
          </g>
          <g
             id="g4660"
             style="fill:#ff9955;fill-opacity:1" />
          <g
             id="g4662"
             style="fill:#ff9955;fill-opacity:1" />
          <g
             id="g4664"
             style="fill:#ff9955;fill-opacity:1" />
          <g
             id="g4666"
             style="fill:#ff9955;fill-opacity:1" />
          <g
             id="g4668"
             style="fill:#ff9955;fill-opacity:1" />
          <g
             id="g4670"
             style="fill:#ff9955;fill-opacity:1" />
          <g
             id="g4672"
             style="fill:#ff9955;fill-opacity:1" />
          <g
             id="g4674"
             style="fill:#ff9955;fill-opacity:1" />
          <g
             id="g4676"
             style="fill:#ff9955;fill-opacity:1" />
          <g
             id="g4678"
             style="fill:#ff9955;fill-opacity:1" />
          <g
             id="g4680"
             style="fill:#ff9955;fill-opacity:1" />
          <g
             id="g4682"
             style="fill:#ff9955;fill-opacity:1" />
          <g
             id="g4684"
             style="fill:#ff9955;fill-opacity:1" />
          <g
             id="g4686"
             style="fill:#ff9955;fill-opacity:1" />
          <g
             id="g4688"
             style="fill:#ff9955;fill-opacity:1" />
        </g>
      </g>
      <g
         id="g4468"
         style="fill:#ff9955;fill-opacity:1" />
      <g
         id="g4470"
         style="fill:#ff9955;fill-opacity:1" />
      <g
         id="g4472"
         style="fill:#ff9955;fill-opacity:1" />
      <g
         id="g4474"
         style="fill:#ff9955;fill-opacity:1" />
      <g
         id="g4476"
         style="fill:#ff9955;fill-opacity:1" />
      <g
         id="g4478"
         style="fill:#ff9955;fill-opacity:1" />
      <g
         id="g4480"
         style="fill:#ff9955;fill-opacity:1" />
      <g
         id="g4482"
         style="fill:#ff9955;fill-opacity:1" />
      <g
         id="g4484"
         style="fill:#ff9955;fill-opacity:1" />
      <g
         id="g4486"
         style="fill:#ff9955;fill-opacity:1" />
      <g
         id="g4488"
         style="fill:#ff9955;fill-opacity:1" />
      <g
         id="g4490"
         style="fill:#ff9955;fill-opacity:1" />
      <g
         id="g4492"
         style="fill:#ff9955;fill-opacity:1" />
      <g
         id="g4494"
         style="fill:#ff9955;fill-opacity:1" />
      <g
         id="g4496"
         style="fill:#ff9955;fill-opacity:1" />
    </g>
    <path
       id="path9448-3"
       d="m 284.8379,-1206.9825 h 51.1816 c 10.86555,0 19.68476,-8.8184 19.68476,-19.6849 0,-10.8664 -8.81921,-19.6848 -19.68476,-19.6848 h -0.39199 c -1.88969,-13.3072 -13.30642,-23.6225 -27.16485,-23.6225 -11.02395,0 -20.47276,6.536 -24.88236,15.9056 h -1.25921 c -11.89035,1.2601 -21.10235,11.26 -21.10235,23.465 0,13.0704 10.55112,23.6216 23.62156,23.6216 z m 94.48801,-102.3619 H 237.59397 c -8.66162,0 -15.74795,7.0865 -15.74795,15.7481 v 110.2362 c 0,8.6616 7.08633,15.748 15.74795,15.748 h 141.73194 c 8.66161,0 15.74795,-7.0864 15.74795,-15.748 v -110.2362 c 0,-8.6616 -7.08634,-15.7481 -15.74795,-15.7481 z m 0,126.0627 H 237.59397 v -110.3939 h 141.73194 z"
       inkscape:connector-curvature="0"
       style="fill:#d35f5f;fill-opacity:1" />
    <flowRoot
       xml:space="preserve"
       id="flowRoot3972"
       style="fill:black;stroke:none;stroke-opacity:1;stroke-width:1px;stroke-linejoin:miter;stroke-linecap:butt;fill-opacity:1;font-family:Sans;font-style:normal;font-weight:normal;font-size:40px;line-height:125%;letter-spacing:0px;word-spacing:0px"><flowRegion
         id="flowRegion3974"><rect
           id="rect3976"
           width="74.131424"
           height="208.274"
           x="-522.45007"
           y="1220.5222" /></flowRegion><flowPara
         id="flowPara3978" /></flowRoot>    <g
       id="g4108"
       transform="matrix(3.2785884,0,0,3.2785884,211.50004,251.43381)"
       style="fill:#abc837;fill-opacity:1">
      <g
         id="g4064"
         style="fill:#abc837;fill-opacity:1">
        <g
           id="g4066"
           style="fill:#abc837;fill-opacity:1">
          <path
             id="path4068"
             d="M 36.226,25.086 H 36.203 V 11.939 h 0.307 c 1.18,0 2.137,-0.929 2.137,-2.108 v -7.65 c 0,-1.18 -0.957,-2.096 -2.137,-2.096 h -5.018 c -1.18,0 -2.112,0.916 -2.112,2.096 V 9.83 c 0,1.179 0.933,2.108 2.112,2.108 h 0.33 v 13.146 h -0.045 c -2.125,0 -3.834,1.768 -3.834,3.892 v 12.921 c 0,2.125 1.709,3.804 3.834,3.804 h 4.451 c 2.123,0 3.854,-1.679 3.854,-3.804 v -12.92 c 0,-2.123 -1.731,-3.891 -3.856,-3.891 z"
             inkscape:connector-curvature="0"
             style="fill:#abc837;fill-opacity:1" />
          <path
             id="path4070"
             d="m 11.494,18.006 v 24.691 c 0,1.67 1.338,3.005 3.008,3.005 h 3.179 c 1.67,0 3.007,-1.335 3.007,-3.005 V 18.007 C 24.136,16.305 26.56,12.732 26.56,8.599 26.56,5.155 24.601,2.106 22.177,0.2 21.9,-0.018 21.523,-0.058 21.207,0.096 20.889,0.251 20.688,0.572 20.688,0.925 v 5.102 c 0,1.63 -1.32,2.896 -2.952,2.896 h -3.284 c -1.632,0 -2.958,-1.265 -2.958,-2.896 V 0.922 c 0,-0.354 -0.199,-0.675 -0.517,-0.83 -0.316,-0.154 -0.692,-0.113 -0.97,0.104 C 7.576,2.103 5.62,5.152 5.62,8.598 c 0,4.133 2.355,7.706 5.874,9.408 z"
             inkscape:connector-curvature="0"
             style="fill:#abc837;fill-opacity:1" />
        </g>
      </g>
      <g
         id="g4072"
         style="fill:#abc837;fill-opacity:1" />
      <g
         id="g4074"
         style="fill:#abc837;fill-opacity:1" />
      <g
         id="g4076"
         style="fill:#abc837;fill-opacity:1" />
      <g
         id="g4078"
         style="fill:#abc837;fill-opacity:1" />
      <g
         id="g4080"
         style="fill:#abc837;fill-opacity:1" />
      <g
         id="g4082"
         style="fill:#abc837;fill-opacity:1" />
      <g
         id="g4084"
         style="fill:#abc837;fill-opacity:1" />
      <g
         id="g4086"
         style="fill:#abc837;fill-opacity:1" />
      <g
         id="g4088"
         style="fill:#abc837;fill-opacity:1" />
      <g
         id="g4090"
         style="fill:#abc837;fill-opacity:1" />
      <g
         id="g4092"
         style="fill:#abc837;fill-opacity:1" />
      <g
         id="g4094"
         style="fill:#abc837;fill-opacity:1" />
      <g
         id="g4096"
         style="fill:#abc837;fill-opacity:1" />
      <g
         id="g4098"
         style="fill:#abc837;fill-opacity:1" />
      <g
         id="g4100"
         style="fill:#abc837;fill-opacity:1" />
    </g>
  </g>
</svg>
