<?xml version="1.0" encoding="UTF-8" standalone="no"?>
<!-- Created with Inkscape (http://www.inkscape.org/) -->

<svg
   xmlns:dc="http://purl.org/dc/elements/1.1/"
   xmlns:cc="http://creativecommons.org/ns#"
   xmlns:rdf="http://www.w3.org/1999/02/22-rdf-syntax-ns#"
   xmlns:svg="http://www.w3.org/2000/svg"
   xmlns="http://www.w3.org/2000/svg"
   xmlns:xlink="http://www.w3.org/1999/xlink"
   xmlns:sodipodi="http://sodipodi.sourceforge.net/DTD/sodipodi-0.dtd"
   xmlns:inkscape="http://www.inkscape.org/namespaces/inkscape"
   width="2104.7244"
   height="1488.189"
   id="svg2"
   version="1.1"
   inkscape:version="0.48.4 r9939"
   sodipodi:docname="cover.svg">
  <defs
     id="defs4">
    <linearGradient
       id="linearGradient3822">
      <stop
         id="stop3825"
         offset="0"
         style="stop-color:#5bc7e5;stop-opacity:1" />
      <stop
         id="stop3827"
         offset="1"
         style="stop-color:#fff6d5;stop-opacity:1" />
    </linearGradient>
    <linearGradient
       inkscape:collect="always"
       xlink:href="#linearGradient3820"
       id="linearGradient10486"
       gradientUnits="userSpaceOnUse"
       gradientTransform="translate(4.921875e-5,3.0468749e-6)"
       x1="4097.6982"
       y1="-1821.7413"
       x2="4097.6982"
       y2="833.64978" />
    <linearGradient
       id="linearGradient3820">
      <stop
         style="stop-color:#5cc3e5;stop-opacity:1;"
         offset="0"
         id="stop3844" />
      <stop
         style="stop-color:#fff6d5;stop-opacity:1"
         offset="1"
         id="stop3824" />
    </linearGradient>
    <linearGradient
       inkscape:collect="always"
       xlink:href="#linearGradient3820"
       id="linearGradient3016"
       gradientUnits="userSpaceOnUse"
       gradientTransform="matrix(0.22577779,0,0,0.30482822,-1.969873e-5,731.57279)"
       x1="4097.6982"
       y1="-1821.7413"
       x2="4097.6982"
       y2="833.64978" />
    <linearGradient
       inkscape:collect="always"
       xlink:href="#linearGradient3820"
       id="linearGradient3099"
       gradientUnits="userSpaceOnUse"
       gradientTransform="matrix(0.22577779,0,0,0.30482822,-1.969873e-5,731.57279)"
       x1="4097.6982"
       y1="-1821.7413"
       x2="4097.6982"
       y2="833.64978" />
    <linearGradient
       inkscape:collect="always"
       xlink:href="#linearGradient3820"
       id="linearGradient3117"
       gradientUnits="userSpaceOnUse"
       gradientTransform="matrix(0.24082965,0,0,0.32511999,-2.1011979e-5,710.21848)"
       x1="4097.6982"
       y1="-1821.7413"
       x2="4097.6982"
       y2="833.64978" />
    <linearGradient
       inkscape:collect="always"
       xlink:href="#linearGradient3820"
       id="linearGradient3243"
       gradientUnits="userSpaceOnUse"
       gradientTransform="matrix(0.24082965,0,0,0.32511999,-2.1011979e-5,710.21848)"
       x1="4097.6982"
       y1="-1821.7413"
       x2="4097.6982"
       y2="833.64978" />
    <linearGradient
       inkscape:collect="always"
       xlink:href="#linearGradient3820"
       id="linearGradient3291"
       gradientUnits="userSpaceOnUse"
       gradientTransform="matrix(0.22577779,0,0,0.30482822,-1.969873e-5,731.57279)"
       x1="4097.6982"
       y1="-1821.7413"
       x2="4097.6982"
       y2="833.64978" />
    <linearGradient
       inkscape:collect="always"
       xlink:href="#linearGradient3820"
       id="linearGradient3293"
       gradientUnits="userSpaceOnUse"
       gradientTransform="matrix(0.24082965,0,0,0.32511999,-2.1011979e-5,710.21848)"
       x1="4097.6982"
       y1="-1821.7413"
       x2="4097.6982"
       y2="833.64978" />
    <linearGradient
       inkscape:collect="always"
       xlink:href="#linearGradient3822"
       id="linearGradient3805"
       gradientUnits="userSpaceOnUse"
       gradientTransform="matrix(0.24082965,0,0,0.32511999,-2.1011979e-5,710.21848)"
       x1="4097.6982"
       y1="-1821.7413"
       x2="4097.6982"
       y2="833.64978" />
  </defs>
  <sodipodi:namedview
     id="base"
     pagecolor="#ffffff"
     bordercolor="#666666"
     borderopacity="1.0"
     inkscape:pageopacity="0.0"
     inkscape:pageshadow="2"
     inkscape:zoom="0.4271561"
     inkscape:cx="546.9398"
     inkscape:cy="700.51272"
     inkscape:document-units="px"
     inkscape:current-layer="layer1"
     showgrid="false"
     units="pt"
     inkscape:window-width="1920"
     inkscape:window-height="1056"
     inkscape:window-x="0"
     inkscape:window-y="0"
     inkscape:window-maximized="1" />
  <metadata
     id="metadata7">
    <rdf:RDF>
      <cc:Work
         rdf:about="">
        <dc:format>image/svg+xml</dc:format>
        <dc:type
           rdf:resource="http://purl.org/dc/dcmitype/StillImage" />
        <dc:title></dc:title>
      </cc:Work>
    </rdf:RDF>
  </metadata>
  <g
     inkscape:label="Layer 1"
     inkscape:groupmode="layer"
     id="layer1"
     transform="translate(0,435.82711)">
    <g
       id="g3002"
       transform="matrix(1.0666667,0,0,1.0665679,0,-70.053572)"
       inkscape:export-filename="/media/alvis/OTHER/screw-startbtn/figure/cover-light-3.png"
       inkscape:export-xdpi="90"
       inkscape:export-ydpi="90">
      <rect
         style="color:#000000;fill:url(#linearGradient3291);fill-opacity:1;fill-rule:nonzero;stroke:#2d3e50;stroke-width:0;stroke-miterlimit:4;stroke-opacity:1;stroke-dasharray:none;stroke-dashoffset:0;marker:none;visibility:visible;display:inline;overflow:visible;enable-background:accumulate"
         id="rect3782-32"
         width="1920"
         height="1080.1"
         x="0"
         y="-27.737867" />
      <rect
         rx="21.521593"
         style="color:#000000;fill:none;stroke:#ffffff;stroke-width:10;stroke-miterlimit:4;stroke-opacity:1;stroke-dasharray:none;stroke-dashoffset:0;marker:none;visibility:visible;display:inline;overflow:visible;enable-background:accumulate"
         id="rect3788-1"
         width="1609.3704"
         height="343.72675"
         x="177.81003"
         y="250.73924"
         ry="21.521593" />
      <text
         xml:space="preserve"
         style="font-style:normal;font-variant:normal;font-weight:bold;font-stretch:normal;text-align:start;line-height:0%;letter-spacing:0px;word-spacing:0px;writing-mode:lr-tb;text-anchor:start;fill:#000000;fill-opacity:1;stroke:none;font-family:LiHei Pro;-inkscape-font-specification:LiHei Pro Bold"
         x="253.6011"
         y="486.47244"
         id="text3778-0"
         sodipodi:linespacing="0%"><tspan
           sodipodi:role="line"
           id="tspan3780-2"
           x="253.6011"
           y="486.47244"
           style="font-size:140px;font-weight:bold;line-height:1.25;fill:#ffffff;-inkscape-font-specification:LiHei Pro Bold">以 軟 體 改 變 工 業 界</tspan></text>
      <text
         xml:space="preserve"
         style="font-size:12px;font-style:normal;font-variant:normal;font-weight:bold;font-stretch:normal;text-align:start;line-height:0%;letter-spacing:0px;word-spacing:0px;writing-mode:lr-tb;text-anchor:start;fill:#000000;fill-opacity:1;stroke:none;font-family:LiHei Pro;-inkscape-font-specification:LiHei Pro Bold"
         x="443.32919"
         y="673.01453"
         id="text3784-6"
         sodipodi:linespacing="0%"><tspan
           sodipodi:role="line"
           x="443.32919"
           y="673.01453"
           style="font-size:48px;line-height:1.25;fill:#ffffff"
           id="tspan6285">運動控制、人機界面、CNC、工業乙太網/物聯網</tspan></text>
      <text
         sodipodi:linespacing="0%"
         xml:space="preserve"
         style="font-style:normal;font-variant:normal;font-weight:bold;font-stretch:normal;text-align:start;line-height:0%;letter-spacing:0px;word-spacing:0px;writing-mode:lr-tb;text-anchor:start;fill:#000000;fill-opacity:1;stroke:none;font-family:LiHei Pro;-inkscape-font-specification:LiHei Pro Bold"
         x="998.5752"
         y="1015.6886"
         id="text2996-4-3"><tspan
           sodipodi:role="line"
           id="tspan2998-4-6"
           x="998.5752"
           y="1015.6886"
           style="font-size:72px;line-height:1.25;fill:#000000;fill-opacity:0.66666667;stroke:none">動程科技 MAPACODE INC</tspan></text>
      <text
         sodipodi:linespacing="125%"
         id="text3797"
         y="855.2193"
         x="948.57141"
         style="font-size:100px;font-style:normal;font-variant:normal;font-weight:bold;font-stretch:normal;text-align:start;line-height:125%;letter-spacing:0px;word-spacing:0px;writing-mode:lr-tb;text-anchor:start;fill:#000000;fill-opacity:1;stroke:none;font-family:LiHei Pro;-inkscape-font-specification:LiHei Pro Bold"
         xml:space="preserve"><tspan
           y="855.2193"
           x="948.57141"
           id="tspan3799"
           sodipodi:role="line" /></text>
      <g
         style="fill:#100f0d;fill-opacity:0.39607843"
         transform="matrix(0.52317632,0,0,0.52317632,1976.8016,664.3358)"
         id="g26310">
        <path
           id="path5918-1"
           style="fill:#100f0d;fill-opacity:0.39607843;fill-rule:nonzero;stroke:none"
           d="m -450.49568,-189.40928 c 17.1544,-0.046 34.295,-0.813 51.4494,-0.9524 -4.5993,18.9779 -2.4297,39.6051 -2.1974,58.9941 -4.0674,-0.7642 -8.1115,-1.3705 -12.2625,-1.5586 0,-10.0952 0,-20.1998 0,-30.281 0,-2.4158 -3.7631,-2.4158 -3.7631,0 0,10.7084 0,21.3937 0,32.1021 0,1.4007 1.2474,1.9884 2.309,1.7724 0.1788,0.06 0.36,0.1022 0.576,0.1092 4.9315,0.1556 9.712,0.9825 14.5436,1.9372 1.187,0.2346 2.3879,-0.5249 2.3832,-1.8118 -0.063,-20.0325 -2.7061,-41.6817 2.3206,-61.3333 1.9605,-0.1858 2.1487,-2.95 0.5575,-3.6004 -0.5714,-1.2776 -2.7038,-1.5796 -3.4239,-0.1162 -17.5029,0.1394 -34.9919,0.9292 -52.4924,0.9756 -2.4274,0 -2.4274,3.7631 0,3.7631"
           inkscape:connector-curvature="0" />
        <path
           id="path5920-6"
           style="fill:#100f0d;fill-opacity:0.39607843;fill-rule:nonzero;stroke:none"
           d="m -493.52238,-35.634776 c 18.9988,-17.2683 34.7503,-36.8664 47.6701,-59.0174 12.5017,-21.437804 24.302,-45.349504 28.2671,-70.064904 0.381,-2.3693 -3.2497,-3.3914 -3.6283,-0.9989 -3.9373,24.5529 -15.626,47.8025 -27.8885,69.163704 -12.6155,21.9884 -28.4692,41.0848 -47.0801,58.2578 -20.058,18.5133 -42.4784,34.4622004 -65.7351,48.6805 -11.1126,6.7991 -22.4854,13.5447 -34.4018,18.8386 -11.8095,5.245 -24.3438,8.813 -36.8641,12.0302 0.084,-15.7677 0.5343,-31.6677996 -1.6724,-47.2937996 47.6561,-7.9721004 91.6073,-30.0116004 128.6456,-60.6597004 17.1405,-14.1834 32.7549,-30.2554 46.9755,-47.354104 12.5645,-15.1127 25.4309,-32.7317 28.5946,-52.5923 1.201,-0.6736 1.712,-2.4855 0.151,-3.2056 -6,-2.7177 -12.6039,-3.1591 -19.1405,-3.252 l 0.01,-0.1394 c -0.044,-2.439 -0.2857,-4.9012 -0.4506,-7.3403 -0.158,-2.3925 -0.063,-5.0406 -0.6063,-7.3867 -0.216,-0.9292 -1.3821,-1.6493 -2.3136,-1.3008 l -0.01,0 c -0.8501,0.3252 -1.3008,0.9059 -1.3821,1.8118 l 0,0.1858 c 0,0.2091 0.028,0.3949 0.079,0.5575 0.037,0.4646 0.13,1.3473 0.1579,1.6725 0.1138,1.4866 0.2161,2.9733 0.3183,4.4599 0.1695,2.4391 0.4018,4.9013 0.446,7.3403 l 0.016,0.1394 c -0.3809,0 -0.7665,0 -1.1475,0 -2.4251,0 -2.4251,3.7398 0,3.7398 6.6504,0.023 13.8235,-0.2555 20.1905,2.0209 -3.2799,19.9071 -16.4692,37.2799 -29.0453,52.4018 -13.2079,15.883904 -27.8815,30.617904 -43.6097,43.995304 -35.324,30.0348 -77.9047,51.619 -123.5631,60.3042 1.2799,-1.7119 -1.2103,-4.0627 -2.8502,-2.4227 -0.7433,0.741 -1.4797,1.4797 -2.223,2.2183 -0.1998,-1.1312 -0.4181,-2.2648 -0.6527,-3.396 -0.4971,-2.3717 -4.1208,-1.3659 -3.6284,1.0011 3.8003,18.2161004 3.0244,36.9524 2.9478,55.4518 -0.5459,0.137 -1.0872,0.2787 -1.6354,0.4158 -2.3507,0.59 -1.3542,4.2206 1.0012,3.626 13.7793,-3.4681 27.6144,-7.1823 40.7224,-12.7433 12.8432,-5.4518 24.9198,-12.6643 36.8408,-19.8769 23.6214,-14.2809996 46.065,-30.6968 66.497,-49.2682"
           inkscape:connector-curvature="0" />
        <path
           id="path6214-3"
           style="fill:#100f0d;fill-opacity:0.39607843;fill-rule:nonzero;stroke:none"
           d="m -875.28958,-154.79838 c 14.6899,9.3379 30.7409,16.0743 48.3832,18.7084 21.2985,3.1777 43.1103,-0.5923 63.6747,-6.1881 21.8513,-5.9466 43.4587,-14.0534 65.9186,-17.4216 6.5296,-0.9988 23.1777,-4.065 36.1672,-3.0197 -0.216,0.093 -0.4204,0.2322 -0.6109,0.3716 -0.6806,-0.4181 -1.5493,-0.4646 -2.4344,0.1859 -15.1289,11.0801 -32.4111,19.1172 -46.9569,30.9895 -9.6516,7.8861 -12.525,14.9198 -15.4379,26.8757 -0.8153,3.3542 4.3624,4.766504 5.1801,1.396 0.9872,-4.0395 2.0534,-8.1301 3.5168,-12.0186 3.1266,-8.3623 11.8629,-13.8652 19.0429,-18.6178 11.777,-7.7886 24.1673,-14.5947 35.6516,-22.7944 1.2195,2.2996 5.3124,1.022 4.9361,-1.928 0.1277,-0.023 0.281,-0.046 0.5226,-0.07 0.8734,-0.1162 1.8374,-0.046 2.7085,0.07 2.4437,0.2787 4.8641,0.8827 7.2172,1.5795 0.7596,0.2323 1.698,0.5111 2.6922,0.813 0.3531,0.604 0.6481,1.2312 0.8478,1.928 0.7898,2.6946 4.3856,2.3229 5.1684,0.2788 0.6621,0.3252 1.2358,0.6504 1.5912,0.9756 l 0.4321,0.3252 c 0.9129,1.4169 3.4471,2.0209 4.8083,0.1626 5.1104,-6.9919 12.3322,-12.8687 19.0685,-18.2114 4.6272,-3.6701 13.712,-12.4738 20.1998,-12.4506 -0.07,0 -0.3763,1.0453 -1.0291,2.6249 -0.9268,2.2532 -2.1788,4.2741 -3.2915,6.4111 -1.9744,3.7863 -5.8141,6.7596 -9.0383,9.4541 -6.2439,5.2033 -12.7689,10.0581 -19.468,14.6341 -2.2834,1.5564 -1.0476,4.8781 1.0035,5.1104 -0.6203,0.9291 -0.6876,2.1835 0.3832,3.1591 19.8769,18.3484 54.1602,8.1742 76.8362,-2.0209 1.101,0.3949 2.446,0.209 3.3008,-0.9989 0.1951,-0.2555 0.3856,-0.5342 0.5761,-0.7897 l 0.4483,-0.2091 c 1.0848,-0.5342 1.468,-1.4402 1.3798,-2.3229 8.4878,-11.684 17.4076,-23.0429 24.878,-35.4238 0.2392,0.1626 0.4692,0.3484 0.7015,0.511 0.3275,0.209 0.6481,0.3252 0.9617,0.3716 l -0.5273,0.4414 c -11.1034,11.9628 -18.899,28.2926 -26.8316,42.8106 l -0.223,0.07 c -14.4762,6.3531 -29.6213,10.6365 -44.734,15.1638 -12.0325,3.6051 -26.7177,6.6875 -37.4285,13.5865 -18.9616,12.211304 -38.5226,25.849004 -53.7258,42.687504 -1.1289,-1.1661 -3.2265,-1.4425 -4.2486,0.3949 -24.4715,43.7955 -65.238,75.0707004 -94.1369,115.6189 l -0.1161,-0.1115 c 23.6817,-39.4540996 52.4598,-75.5307 77.6607,-113.9906 0.6435,-0.9849 0.3879,-2.4111 -0.4135,-3.2218 -3.0615,-3.0755 -6.0418,-6.5087 -10.2694,-7.8537 -1.3357,-0.425 -2.3507,0.1766 -2.8757,1.1081 -0.8618,-0.3531 -1.8815,-0.2788 -2.7457,0.5598 -31.9163,30.9662 -71.1567,54.1346 -109.8488,75.8744004 18.0859,-17.1405004 36.8176,-33.5934004 55.31,-50.2972004 0.4274,-0.06 0.8548,-0.1696 1.2846,-0.223 1.6167,-0.1998 2.1556,-1.4611 1.9326,-2.6922 15.4309,-13.9954 30.6527,-28.1974 45.1451,-43.1963 2.3995,-2.4831 -1.3635,-6.313504 -3.7654,-3.8257 -15.0824,15.612 -30.9593,30.3669 -47.0359,44.9128 -12.072,1.9977 -24.9779,7.7398 -35.1057,13.928 -6.2648,3.8327 -12.9454,7.3798 -18.9361,11.6051 -0.295,0.2113 -0.7386,0.5366 -1.252,0.9361 0.095,-1.4565 0.1603,-2.9245 0.1835,-4.4553 0.028,-1.3937 -0.8362,-2.2253 -1.8769,-2.5017 -2.3856,-22.8688 -10.0046,-45.6608 -18.4018,-66.636404 -7.1452,-17.8513 -15.4634,-36.9059 -26.9477,-53.1428 z m 364.0251,-29.8025 c -0.4297,-0.093 -0.8223,-0.093 -1.1777,0 0.1905,-0.9989 -0.1162,-2.0906 -1.194,-2.7875 -2.7247,-1.7654 -6.0743,-5.0406 -6.1068,-8.5482 0,-1.2079 0.374,-4.6922 2.2183,-4.7619 3.2869,-0.1161 6.4274,2.8572 8.4948,5.0871 2.1765,2.3693 5.194,5.9234 5.3658,9.3148 0.1836,3.6701 -5.166,2.2531 -7.6004,1.6957 z m -384.1273,14.8896 c 19.4239,17.6306 31.6631,43.9372 41.2543,67.8954 9.712,24.267104 18.7642,50.926804 19.5424,77.370404 l -0.1255,0.1 c -0.9988,1.0081 -1.9953,1.9651 -2.8037,3.1289 -1.1916,1.712 0.4181,3.9953 2.2997,4.0255 1.2404,0.023 2.5459,-0.6875 3.8049,-1.6051 0.9291,-0.081 1.7816,-0.6271 2.1091,-1.7119 0.7875,-0.6876 1.5192,-1.3426 2.1464,-1.8003 4.9221,-3.5958 10.295,-6.5063 15.4657,-9.7398 9.2009,-5.7537 19.5772,-11.5098 30.3716,-14.9407 -19.77,17.763 -39.691,35.3681 -58.6828,53.9720004 -2.4693,2.4251 1.2984,6.2438996 3.77,3.8234996 0.4065,-0.3949 0.8153,-0.7898 1.2218,-1.1823996 0.7549,0.8850996 2.0093,1.3426996 3.266,0.6387996 41.8257,-23.3844 84.929,-47.9395 119.5399,-81.5283 l 0.3206,-0.3694 0.137,0.06 c 9.2149,2.9385 4.3229,8.0186 0.7526,13.2939 -3.7886,5.5981 -7.6144,11.173 -11.4936,16.7038 -7.0035,9.9814 -14.1068,19.8908 -21.1614,29.835 -13.4378,18.9059004 -26.6875,37.9442 -38.6062,57.849 -1.41,0.7619 -2.216,2.6736 -0.748,4.1788 l 0.3601,0.3647 0.3252,0.2741 c 0.6875,0.6458 1.389,1.3008 2.1115,1.935 -1.1731,2.4111 2.2299,4.7944 4.2578,2.964 0.5064,0.2439 1.0221,0.4738 1.5633,0.6434 2.5877,0.8246 4.432,-2.6225 2.6086,-4.4739 -0.2834,-0.2903 -0.5807,-0.5389 -0.8804,-0.7619 28.5389,-40.0905 68.6596,-71.073 93.2682,-114.0672 0.9408,0.9199 2.4204,1.2033 3.5447,-0.072 7.7329,-8.7085 16.7828,-16.2578 26,-23.3449 9.3821,-7.2102 19.5354,-15.981404 30.4436,-20.801404 24.0464,-10.6155 50.1114,-15.4541 74.4366,-25.3286 0.9594,1.5331 3.4704,2.1231 4.6272,0.07 8.4855,-15.0058 16.4343,-33.0778 28.2253,-45.7607 0.3182,-0.3484 0.5203,-0.7201 0.6295,-1.0918 5.3217,0.9524 13.1498,0.813 13.2102,-6.3182 0.04,-5.691 -4.1394,-11.3821 -8.144,-15.0987 -3.5866,-3.3217 -9.8606,-7.7816 -14.7433,-4.2509 -6.5204,4.6923 -4.1975,12.4971 0.2206,17.8862 l -0.4041,0.511 c -7.7283,12.9385 -17.0755,24.7154 -25.8815,36.8873 -20.216,9.5006 -54.8153,21.4634 -73.3867,4.3206 -0.4228,-0.3717 -0.8827,-0.604 -1.3496,-0.6737 9.1359,-6.2253 19.1846,-12.8455 26.3716,-21.1846 3.4216,-3.9953 11.8815,-15.9349 5.4611,-20.5342 -5.8002,-4.158 -18.5737,7.0847 -22.4971,10.0348 -7.8954,5.9001 -16.058,12.4738 -22.346,20.209 -1.6307,-0.9988 -4.1766,-2.1835 -7.0918,-3.252 -7.6446,-8.3856 -25.4355,-7.2241 -35.0197,-6.6202 -20.0325,1.2776 -39.252,5.6678 -58.4784,11.3356 -23.4913,6.9454 -47.5702,15.3078 -72.3298,15.5401 -31.9442,0.3252 -59.6352,-12.6365 -83.67,-33.101 -2.5947,-2.23 -6.4042,1.4169 -3.8235,3.763"
           inkscape:connector-curvature="0" />
      </g>
    </g>
    <rect
       style="color:#000000;fill:url(#linearGradient3805);fill-opacity:1;fill-rule:nonzero;stroke:#2d3e50;stroke-width:0;stroke-miterlimit:4;stroke-opacity:1;stroke-dasharray:none;stroke-dashoffset:0;marker:none;visibility:visible;display:inline;overflow:visible;enable-background:accumulate"
       id="rect3022"
       width="2048"
       height="1152"
       x="0"
       y="-99.637894"
       inkscape:export-filename="/media/alvis/OTHER/screw-startbtn/figure/cover-light-3.png"
       inkscape:export-xdpi="90"
       inkscape:export-ydpi="90" />
    <rect
       rx="20"
       style="color:#000000;fill:none;stroke:#ffffff;stroke-width:10.10000038;stroke-miterlimit:4;stroke-opacity:1;stroke-dasharray:none;stroke-dashoffset:0;marker:none;visibility:visible;display:inline;overflow:visible;enable-background:accumulate"
       id="rect3024"
       width="1717.8673"
       height="288.21725"
       x="189.06126"
       y="317.25433"
       ry="19.9"
       inkscape:export-filename="/media/alvis/OTHER/screw-startbtn/figure/cover-light-3.png"
       inkscape:export-xdpi="90"
       inkscape:export-ydpi="90" />
    <text
       xml:space="preserve"
       style="font-size:12.79940796px;font-style:normal;font-variant:normal;font-weight:bold;font-stretch:normal;text-align:start;line-height:0%;letter-spacing:0px;word-spacing:0px;writing-mode:lr-tb;text-anchor:start;fill:#000000;fill-opacity:1;stroke:none;font-family:LiHei Pro;-inkscape-font-specification:LiHei Pro Bold"
       x="270.49533"
       y="524.82678"
       id="text3026"
       sodipodi:linespacing="0%"
       transform="scale(1.0000463,0.9999537)"
       inkscape:export-filename="/media/alvis/OTHER/screw-startbtn/figure/cover-light-3.png"
       inkscape:export-xdpi="90"
       inkscape:export-ydpi="90"><tspan
         sodipodi:role="line"
         id="tspan3028"
         x="270.49533"
         y="524.82678"
         style="font-size:149.32641602px;font-weight:bold;line-height:1.25;fill:#ffffff;-inkscape-font-specification:LiHei Pro Bold">以 軟 體 改 變 工 業 界</tspan></text>
    <text
       xml:space="preserve"
       style="font-size:12.79940796px;font-style:normal;font-variant:normal;font-weight:bold;font-stretch:normal;text-align:start;line-height:0%;letter-spacing:0px;word-spacing:0px;writing-mode:lr-tb;text-anchor:start;fill:#000000;fill-opacity:1;stroke:none;font-family:LiHei Pro;-inkscape-font-specification:LiHei Pro Bold"
       x="482.86212"
       y="729.79706"
       id="text3030"
       sodipodi:linespacing="0%"
       transform="scale(1.0000463,0.9999537)"
       inkscape:export-filename="/media/alvis/OTHER/screw-startbtn/figure/cover-light-3.png"
       inkscape:export-xdpi="90"
       inkscape:export-ydpi="90"><tspan
         sodipodi:role="line"
         x="482.86212"
         y="729.79706"
         style="font-size:51.19763184px;line-height:1.25;fill:#ffffff"
         id="tspan3032">運動控制、人機界面、CNC、工業乙太網/物聯網</tspan></text>
    <text
       sodipodi:linespacing="0%"
       xml:space="preserve"
       style="font-size:12.79940796px;font-style:normal;font-variant:normal;font-weight:bold;font-stretch:normal;text-align:start;line-height:0%;letter-spacing:0px;word-spacing:0px;writing-mode:lr-tb;text-anchor:start;fill:#000000;fill-opacity:1;stroke:none;font-family:LiHei Pro;-inkscape-font-specification:LiHei Pro Bold"
       x="1065.0975"
       y="1013.2942"
       id="text3034"
       transform="scale(1.0000463,0.9999537)"
       inkscape:export-filename="/media/alvis/OTHER/screw-startbtn/figure/cover-light-3.png"
       inkscape:export-xdpi="90"
       inkscape:export-ydpi="90"><tspan
         sodipodi:role="line"
         id="tspan3036"
         x="1065.0975"
         y="1013.2942"
         style="font-size:76.79644775px;line-height:1.25;fill:#000000;fill-opacity:0.66666667;stroke:none">動程科技 MAPACODE INC</tspan></text>
    <text
       sodipodi:linespacing="125%"
       id="text3038"
       y="842.13489"
       x="1011.7627"
       style="font-size:106.66172791px;font-style:normal;font-variant:normal;font-weight:bold;font-stretch:normal;text-align:start;line-height:125%;letter-spacing:0px;word-spacing:0px;writing-mode:lr-tb;text-anchor:start;fill:#000000;fill-opacity:1;stroke:none;font-family:LiHei Pro;-inkscape-font-specification:LiHei Pro Bold"
       xml:space="preserve"
       transform="scale(1.0000463,0.9999537)"><tspan
         y="842.13489"
         x="1011.7627"
         id="tspan3040"
         sodipodi:role="line" /></text>
    <g
       style="fill:#100f0d;fill-opacity:0.39607843"
       transform="matrix(0.55805476,0,0,0.55800307,2185.2382,637.85591)"
       id="g3042"
       inkscape:export-filename="/media/alvis/OTHER/screw-startbtn/figure/cover-light-3.png"
       inkscape:export-xdpi="90"
       inkscape:export-ydpi="90">
      <path
         id="path3044"
         style="fill:#100f0d;fill-opacity:0.39607843;fill-rule:nonzero;stroke:none"
         d="m -450.49568,-189.40928 c 17.1544,-0.046 34.295,-0.813 51.4494,-0.9524 -4.5993,18.9779 -2.4297,39.6051 -2.1974,58.9941 -4.0674,-0.7642 -8.1115,-1.3705 -12.2625,-1.5586 0,-10.0952 0,-20.1998 0,-30.281 0,-2.4158 -3.7631,-2.4158 -3.7631,0 0,10.7084 0,21.3937 0,32.1021 0,1.4007 1.2474,1.9884 2.309,1.7724 0.1788,0.06 0.36,0.1022 0.576,0.1092 4.9315,0.1556 9.712,0.9825 14.5436,1.9372 1.187,0.2346 2.3879,-0.5249 2.3832,-1.8118 -0.063,-20.0325 -2.7061,-41.6817 2.3206,-61.3333 1.9605,-0.1858 2.1487,-2.95 0.5575,-3.6004 -0.5714,-1.2776 -2.7038,-1.5796 -3.4239,-0.1162 -17.5029,0.1394 -34.9919,0.9292 -52.4924,0.9756 -2.4274,0 -2.4274,3.7631 0,3.7631"
         inkscape:connector-curvature="0" />
      <path
         id="path3046"
         style="fill:#100f0d;fill-opacity:0.39607843;fill-rule:nonzero;stroke:none"
         d="m -493.52238,-35.634776 c 18.9988,-17.2683 34.7503,-36.8664 47.6701,-59.0174 12.5017,-21.437804 24.302,-45.349504 28.2671,-70.064904 0.381,-2.3693 -3.2497,-3.3914 -3.6283,-0.9989 -3.9373,24.5529 -15.626,47.8025 -27.8885,69.163704 -12.6155,21.9884 -28.4692,41.0848 -47.0801,58.2578 -20.058,18.5133 -42.4784,34.4622004 -65.7351,48.6805 -11.1126,6.7991 -22.4854,13.5447 -34.4018,18.8386 -11.8095,5.245 -24.3438,8.813 -36.8641,12.0302 0.084,-15.7677 0.5343,-31.6677996 -1.6724,-47.2937996 47.6561,-7.9721004 91.6073,-30.0116004 128.6456,-60.6597004 17.1405,-14.1834 32.7549,-30.2554 46.9755,-47.354104 12.5645,-15.1127 25.4309,-32.7317 28.5946,-52.5923 1.201,-0.6736 1.712,-2.4855 0.151,-3.2056 -6,-2.7177 -12.6039,-3.1591 -19.1405,-3.252 l 0.01,-0.1394 c -0.044,-2.439 -0.2857,-4.9012 -0.4506,-7.3403 -0.158,-2.3925 -0.063,-5.0406 -0.6063,-7.3867 -0.216,-0.9292 -1.3821,-1.6493 -2.3136,-1.3008 l -0.01,0 c -0.8501,0.3252 -1.3008,0.9059 -1.3821,1.8118 l 0,0.1858 c 0,0.2091 0.028,0.3949 0.079,0.5575 0.037,0.4646 0.13,1.3473 0.1579,1.6725 0.1138,1.4866 0.2161,2.9733 0.3183,4.4599 0.1695,2.4391 0.4018,4.9013 0.446,7.3403 l 0.016,0.1394 c -0.3809,0 -0.7665,0 -1.1475,0 -2.4251,0 -2.4251,3.7398 0,3.7398 6.6504,0.023 13.8235,-0.2555 20.1905,2.0209 -3.2799,19.9071 -16.4692,37.2799 -29.0453,52.4018 -13.2079,15.883904 -27.8815,30.617904 -43.6097,43.995304 -35.324,30.0348 -77.9047,51.619 -123.5631,60.3042 1.2799,-1.7119 -1.2103,-4.0627 -2.8502,-2.4227 -0.7433,0.741 -1.4797,1.4797 -2.223,2.2183 -0.1998,-1.1312 -0.4181,-2.2648 -0.6527,-3.396 -0.4971,-2.3717 -4.1208,-1.3659 -3.6284,1.0011 3.8003,18.2161004 3.0244,36.9524 2.9478,55.4518 -0.5459,0.137 -1.0872,0.2787 -1.6354,0.4158 -2.3507,0.59 -1.3542,4.2206 1.0012,3.626 13.7793,-3.4681 27.6144,-7.1823 40.7224,-12.7433 12.8432,-5.4518 24.9198,-12.6643 36.8408,-19.8769 23.6214,-14.2809996 46.065,-30.6968 66.497,-49.2682"
         inkscape:connector-curvature="0" />
      <path
         id="path3048"
         style="fill:#100f0d;fill-opacity:0.39607843;fill-rule:nonzero;stroke:none"
         d="m -875.28958,-154.79838 c 14.6899,9.3379 30.7409,16.0743 48.3832,18.7084 21.2985,3.1777 43.1103,-0.5923 63.6747,-6.1881 21.8513,-5.9466 43.4587,-14.0534 65.9186,-17.4216 6.5296,-0.9988 23.1777,-4.065 36.1672,-3.0197 -0.216,0.093 -0.4204,0.2322 -0.6109,0.3716 -0.6806,-0.4181 -1.5493,-0.4646 -2.4344,0.1859 -15.1289,11.0801 -32.4111,19.1172 -46.9569,30.9895 -9.6516,7.8861 -12.525,14.9198 -15.4379,26.8757 -0.8153,3.3542 4.3624,4.766504 5.1801,1.396 0.9872,-4.0395 2.0534,-8.1301 3.5168,-12.0186 3.1266,-8.3623 11.8629,-13.8652 19.0429,-18.6178 11.777,-7.7886 24.1673,-14.5947 35.6516,-22.7944 1.2195,2.2996 5.3124,1.022 4.9361,-1.928 0.1277,-0.023 0.281,-0.046 0.5226,-0.07 0.8734,-0.1162 1.8374,-0.046 2.7085,0.07 2.4437,0.2787 4.8641,0.8827 7.2172,1.5795 0.7596,0.2323 1.698,0.5111 2.6922,0.813 0.3531,0.604 0.6481,1.2312 0.8478,1.928 0.7898,2.6946 4.3856,2.3229 5.1684,0.2788 0.6621,0.3252 1.2358,0.6504 1.5912,0.9756 l 0.4321,0.3252 c 0.9129,1.4169 3.4471,2.0209 4.8083,0.1626 5.1104,-6.9919 12.3322,-12.8687 19.0685,-18.2114 4.6272,-3.6701 13.712,-12.4738 20.1998,-12.4506 -0.07,0 -0.3763,1.0453 -1.0291,2.6249 -0.9268,2.2532 -2.1788,4.2741 -3.2915,6.4111 -1.9744,3.7863 -5.8141,6.7596 -9.0383,9.4541 -6.2439,5.2033 -12.7689,10.0581 -19.468,14.6341 -2.2834,1.5564 -1.0476,4.8781 1.0035,5.1104 -0.6203,0.9291 -0.6876,2.1835 0.3832,3.1591 19.8769,18.3484 54.1602,8.1742 76.8362,-2.0209 1.101,0.3949 2.446,0.209 3.3008,-0.9989 0.1951,-0.2555 0.3856,-0.5342 0.5761,-0.7897 l 0.4483,-0.2091 c 1.0848,-0.5342 1.468,-1.4402 1.3798,-2.3229 8.4878,-11.684 17.4076,-23.0429 24.878,-35.4238 0.2392,0.1626 0.4692,0.3484 0.7015,0.511 0.3275,0.209 0.6481,0.3252 0.9617,0.3716 l -0.5273,0.4414 c -11.1034,11.9628 -18.899,28.2926 -26.8316,42.8106 l -0.223,0.07 c -14.4762,6.3531 -29.6213,10.6365 -44.734,15.1638 -12.0325,3.6051 -26.7177,6.6875 -37.4285,13.5865 -18.9616,12.211304 -38.5226,25.849004 -53.7258,42.687504 -1.1289,-1.1661 -3.2265,-1.4425 -4.2486,0.3949 -24.4715,43.7955 -65.238,75.0707004 -94.1369,115.6189 l -0.1161,-0.1115 c 23.6817,-39.4540996 52.4598,-75.5307 77.6607,-113.9906 0.6435,-0.9849 0.3879,-2.4111 -0.4135,-3.2218 -3.0615,-3.0755 -6.0418,-6.5087 -10.2694,-7.8537 -1.3357,-0.425 -2.3507,0.1766 -2.8757,1.1081 -0.8618,-0.3531 -1.8815,-0.2788 -2.7457,0.5598 -31.9163,30.9662 -71.1567,54.1346 -109.8488,75.8744004 18.0859,-17.1405004 36.8176,-33.5934004 55.31,-50.2972004 0.4274,-0.06 0.8548,-0.1696 1.2846,-0.223 1.6167,-0.1998 2.1556,-1.4611 1.9326,-2.6922 15.4309,-13.9954 30.6527,-28.1974 45.1451,-43.1963 2.3995,-2.4831 -1.3635,-6.313504 -3.7654,-3.8257 -15.0824,15.612 -30.9593,30.3669 -47.0359,44.9128 -12.072,1.9977 -24.9779,7.7398 -35.1057,13.928 -6.2648,3.8327 -12.9454,7.3798 -18.9361,11.6051 -0.295,0.2113 -0.7386,0.5366 -1.252,0.9361 0.095,-1.4565 0.1603,-2.9245 0.1835,-4.4553 0.028,-1.3937 -0.8362,-2.2253 -1.8769,-2.5017 -2.3856,-22.8688 -10.0046,-45.6608 -18.4018,-66.636404 -7.1452,-17.8513 -15.4634,-36.9059 -26.9477,-53.1428 z m 364.0251,-29.8025 c -0.4297,-0.093 -0.8223,-0.093 -1.1777,0 0.1905,-0.9989 -0.1162,-2.0906 -1.194,-2.7875 -2.7247,-1.7654 -6.0743,-5.0406 -6.1068,-8.5482 0,-1.2079 0.374,-4.6922 2.2183,-4.7619 3.2869,-0.1161 6.4274,2.8572 8.4948,5.0871 2.1765,2.3693 5.194,5.9234 5.3658,9.3148 0.1836,3.6701 -5.166,2.2531 -7.6004,1.6957 z m -384.1273,14.8896 c 19.4239,17.6306 31.6631,43.9372 41.2543,67.8954 9.712,24.267104 18.7642,50.926804 19.5424,77.370404 l -0.1255,0.1 c -0.9988,1.0081 -1.9953,1.9651 -2.8037,3.1289 -1.1916,1.712 0.4181,3.9953 2.2997,4.0255 1.2404,0.023 2.5459,-0.6875 3.8049,-1.6051 0.9291,-0.081 1.7816,-0.6271 2.1091,-1.7119 0.7875,-0.6876 1.5192,-1.3426 2.1464,-1.8003 4.9221,-3.5958 10.295,-6.5063 15.4657,-9.7398 9.2009,-5.7537 19.5772,-11.5098 30.3716,-14.9407 -19.77,17.763 -39.691,35.3681 -58.6828,53.9720004 -2.4693,2.4251 1.2984,6.2438996 3.77,3.8234996 0.4065,-0.3949 0.8153,-0.7898 1.2218,-1.1823996 0.7549,0.8850996 2.0093,1.3426996 3.266,0.6387996 41.8257,-23.3844 84.929,-47.9395 119.5399,-81.5283 l 0.3206,-0.3694 0.137,0.06 c 9.2149,2.9385 4.3229,8.0186 0.7526,13.2939 -3.7886,5.5981 -7.6144,11.173 -11.4936,16.7038 -7.0035,9.9814 -14.1068,19.8908 -21.1614,29.835 -13.4378,18.9059004 -26.6875,37.9442 -38.6062,57.849 -1.41,0.7619 -2.216,2.6736 -0.748,4.1788 l 0.3601,0.3647 0.3252,0.2741 c 0.6875,0.6458 1.389,1.3008 2.1115,1.935 -1.1731,2.4111 2.2299,4.7944 4.2578,2.964 0.5064,0.2439 1.0221,0.4738 1.5633,0.6434 2.5877,0.8246 4.432,-2.6225 2.6086,-4.4739 -0.2834,-0.2903 -0.5807,-0.5389 -0.8804,-0.7619 28.5389,-40.0905 68.6596,-71.073 93.2682,-114.0672 0.9408,0.9199 2.4204,1.2033 3.5447,-0.072 7.7329,-8.7085 16.7828,-16.2578 26,-23.3449 9.3821,-7.2102 19.5354,-15.981404 30.4436,-20.801404 24.0464,-10.6155 50.1114,-15.4541 74.4366,-25.3286 0.9594,1.5331 3.4704,2.1231 4.6272,0.07 8.4855,-15.0058 16.4343,-33.0778 28.2253,-45.7607 0.3182,-0.3484 0.5203,-0.7201 0.6295,-1.0918 5.3217,0.9524 13.1498,0.813 13.2102,-6.3182 0.04,-5.691 -4.1394,-11.3821 -8.144,-15.0987 -3.5866,-3.3217 -9.8606,-7.7816 -14.7433,-4.2509 -6.5204,4.6923 -4.1975,12.4971 0.2206,17.8862 l -0.4041,0.511 c -7.7283,12.9385 -17.0755,24.7154 -25.8815,36.8873 -20.216,9.5006 -54.8153,21.4634 -73.3867,4.3206 -0.4228,-0.3717 -0.8827,-0.604 -1.3496,-0.6737 9.1359,-6.2253 19.1846,-12.8455 26.3716,-21.1846 3.4216,-3.9953 11.8815,-15.9349 5.4611,-20.5342 -5.8002,-4.158 -18.5737,7.0847 -22.4971,10.0348 -7.8954,5.9001 -16.058,12.4738 -22.346,20.209 -1.6307,-0.9988 -4.1766,-2.1835 -7.0918,-3.252 -7.6446,-8.3856 -25.4355,-7.2241 -35.0197,-6.6202 -20.0325,1.2776 -39.252,5.6678 -58.4784,11.3356 -23.4913,6.9454 -47.5702,15.3078 -72.3298,15.5401 -31.9442,0.3252 -59.6352,-12.6365 -83.67,-33.101 -2.5947,-2.23 -6.4042,1.4169 -3.8235,3.763"
         inkscape:connector-curvature="0" />
    </g>
  </g>
</svg>
