<?xml version="1.0" encoding="UTF-8" standalone="no"?>
<!-- Created with Inkscape (http://www.inkscape.org/) -->

<svg
   xmlns:dc="http://purl.org/dc/elements/1.1/"
   xmlns:cc="http://creativecommons.org/ns#"
   xmlns:rdf="http://www.w3.org/1999/02/22-rdf-syntax-ns#"
   xmlns:svg="http://www.w3.org/2000/svg"
   xmlns="http://www.w3.org/2000/svg"
   xmlns:xlink="http://www.w3.org/1999/xlink"
   xmlns:sodipodi="http://sodipodi.sourceforge.net/DTD/sodipodi-0.dtd"
   xmlns:inkscape="http://www.inkscape.org/namespaces/inkscape"
   width="2104.7244"
   height="1488.189"
   id="svg2"
   version="1.1"
   inkscape:version="0.48.4 r9939"
   sodipodi:docname="youtube.svg">
  <defs
     id="defs4">
    <linearGradient
       inkscape:collect="always"
       xlink:href="#linearGradient3820"
       id="linearGradient10486"
       gradientUnits="userSpaceOnUse"
       gradientTransform="translate(4.921875e-5,3.0468749e-6)"
       x1="4097.6982"
       y1="-1821.7413"
       x2="4097.6982"
       y2="833.64978" />
    <linearGradient
       id="linearGradient3820">
      <stop
         style="stop-color:#5cc3e5;stop-opacity:1;"
         offset="0"
         id="stop3844" />
      <stop
         style="stop-color:#fff6d5;stop-opacity:1"
         offset="1"
         id="stop3824" />
    </linearGradient>
    <linearGradient
       inkscape:collect="always"
       xlink:href="#linearGradient3820"
       id="linearGradient3016"
       gradientUnits="userSpaceOnUse"
       gradientTransform="matrix(0.22577779,0,0,0.30482822,-1.969873e-5,731.57279)"
       x1="4097.6982"
       y1="-1821.7413"
       x2="4097.6982"
       y2="833.64978" />
    <linearGradient
       inkscape:collect="always"
       xlink:href="#linearGradient3820"
       id="linearGradient3099"
       gradientUnits="userSpaceOnUse"
       gradientTransform="matrix(0.22577779,0,0,0.30482822,-1.969873e-5,731.57279)"
       x1="4097.6982"
       y1="-1821.7413"
       x2="4097.6982"
       y2="833.64978" />
    <linearGradient
       inkscape:collect="always"
       xlink:href="#linearGradient3820"
       id="linearGradient3117"
       gradientUnits="userSpaceOnUse"
       gradientTransform="matrix(0.24082965,0,0,0.32511999,-2.1011979e-5,710.21848)"
       x1="4097.6982"
       y1="-1821.7413"
       x2="4097.6982"
       y2="833.64978" />
    <linearGradient
       inkscape:collect="always"
       xlink:href="#linearGradient3820"
       id="linearGradient3243"
       gradientUnits="userSpaceOnUse"
       gradientTransform="matrix(0.24082965,0,0,0.32511999,-2.1011979e-5,710.21848)"
       x1="4097.6982"
       y1="-1821.7413"
       x2="4097.6982"
       y2="833.64978" />
    <linearGradient
       inkscape:collect="always"
       xlink:href="#linearGradient3820"
       id="linearGradient3293"
       gradientUnits="userSpaceOnUse"
       gradientTransform="matrix(0.24082965,0,0,0.32511999,-2.1011979e-5,710.21848)"
       x1="4097.6982"
       y1="-1821.7413"
       x2="4097.6982"
       y2="833.64978" />
    <linearGradient
       inkscape:collect="always"
       xlink:href="#linearGradient3820"
       id="linearGradient3289"
       gradientUnits="userSpaceOnUse"
       gradientTransform="matrix(0.24082965,0,0,0.32511999,-2146.8822,505.95422)"
       x1="4097.6982"
       y1="-1821.7413"
       x2="4097.6982"
       y2="833.64978" />
    <linearGradient
       inkscape:collect="always"
       xlink:href="#linearGradient3820"
       id="linearGradient3305"
       gradientUnits="userSpaceOnUse"
       gradientTransform="matrix(0.24082965,0,0,0.32511999,-2146.8822,505.95422)"
       x1="4097.6982"
       y1="-1821.7413"
       x2="4097.6982"
       y2="833.64978" />
    <linearGradient
       inkscape:collect="always"
       xlink:href="#linearGradient3820"
       id="linearGradient3319"
       gradientUnits="userSpaceOnUse"
       gradientTransform="matrix(0.24082965,0,0,0.32511999,-2146.8822,505.95422)"
       x1="4097.6982"
       y1="-1821.7413"
       x2="4097.6982"
       y2="833.64978" />
    <linearGradient
       inkscape:collect="always"
       xlink:href="#linearGradient3820"
       id="linearGradient3345"
       gradientUnits="userSpaceOnUse"
       gradientTransform="matrix(0.24082965,0,0,0.32511999,-2146.8822,505.95422)"
       x1="4097.6982"
       y1="-1821.7413"
       x2="4097.6982"
       y2="833.64978" />
    <linearGradient
       inkscape:collect="always"
       xlink:href="#linearGradient3820"
       id="linearGradient3350"
       gradientUnits="userSpaceOnUse"
       gradientTransform="matrix(0.24082965,0,0,0.32511999,-2146.8822,505.95422)"
       x1="4097.6982"
       y1="-1821.7413"
       x2="4097.6982"
       y2="833.64978" />
    <linearGradient
       inkscape:collect="always"
       xlink:href="#linearGradient3820"
       id="linearGradient3354"
       gradientUnits="userSpaceOnUse"
       gradientTransform="matrix(0.24082965,0,0,0.32511999,-2146.8822,505.95422)"
       x1="4097.6982"
       y1="-1821.7413"
       x2="4097.6982"
       y2="833.64978" />
    <linearGradient
       inkscape:collect="always"
       xlink:href="#linearGradient3820"
       id="linearGradient3357"
       gradientUnits="userSpaceOnUse"
       gradientTransform="matrix(0.24082965,0,0,0.32511999,-2146.8822,505.95422)"
       x1="4097.6982"
       y1="-1821.7413"
       x2="4097.6982"
       y2="833.64978" />
    <linearGradient
       inkscape:collect="always"
       xlink:href="#linearGradient3820"
       id="linearGradient3381"
       gradientUnits="userSpaceOnUse"
       gradientTransform="matrix(0.24082965,0,0,0.32511999,-2146.8822,505.95422)"
       x1="4097.6982"
       y1="-1821.7413"
       x2="4097.6982"
       y2="833.64978" />
  </defs>
  <sodipodi:namedview
     id="base"
     pagecolor="#ffffff"
     bordercolor="#666666"
     borderopacity="1.0"
     inkscape:pageopacity="0.0"
     inkscape:pageshadow="2"
     inkscape:zoom="0.29900591"
     inkscape:cx="1654.6842"
     inkscape:cy="1796.1614"
     inkscape:document-units="px"
     inkscape:current-layer="layer1"
     showgrid="false"
     units="pt"
     inkscape:window-width="1366"
     inkscape:window-height="744"
     inkscape:window-x="1920"
     inkscape:window-y="0"
     inkscape:window-maximized="1"
     showguides="true"
     inkscape:guide-bbox="true" />
  <metadata
     id="metadata7">
    <rdf:RDF>
      <cc:Work
         rdf:about="">
        <dc:format>image/svg+xml</dc:format>
        <dc:type
           rdf:resource="http://purl.org/dc/dcmitype/StillImage" />
        <dc:title></dc:title>
      </cc:Work>
    </rdf:RDF>
  </metadata>
  <g
     inkscape:label="Layer 1"
     inkscape:groupmode="layer"
     id="layer1"
     transform="translate(0,435.82711)">
    <text
       xml:space="preserve"
       style="font-size:106.66172791px;font-style:normal;font-variant:normal;font-weight:bold;font-stretch:normal;text-align:start;line-height:125%;letter-spacing:0px;word-spacing:0px;writing-mode:lr-tb;text-anchor:start;fill:#000000;fill-opacity:1;stroke:none;font-family:LiHei Pro;-inkscape-font-specification:LiHei Pro Bold"
       x="-1135.0201"
       y="637.86115"
       id="text3797"
       sodipodi:linespacing="125%"
       transform="scale(1.0000463,0.99995369)"><tspan
         sodipodi:role="line"
         id="tspan3799"
         x="-1135.0201"
         y="637.86115" /></text>
    <g
       id="g3321"
       inkscape:export-filename="/home/alvis/qwer.png"
       inkscape:export-xdpi="90"
       inkscape:export-ydpi="90"
       transform="translate(2146.8821,204.26402)">
      <rect
         style="color:#000000;fill:url(#linearGradient3381);fill-opacity:1;fill-rule:nonzero;stroke:#2d3e50;stroke-width:0;stroke-miterlimit:4;stroke-opacity:1;stroke-dasharray:none;stroke-dashoffset:0;marker:none;visibility:visible;display:inline;overflow:visible;enable-background:accumulate"
         id="rect3782-32"
         width="2048"
         height="1152"
         x="-2146.8821"
         y="-303.90216"
         inkscape:export-filename="/media/alvis/OTHER/screw-startbtn/figure/cover-light-2.png"
         inkscape:export-xdpi="90"
         inkscape:export-ydpi="90" />
      <rect
         rx="20"
         style="color:#000000;fill:none;stroke:#ffffff;stroke-width:9.64730358;stroke-miterlimit:4;stroke-opacity:1;stroke-dasharray:none;stroke-dashoffset:0;marker:none;visibility:visible;display:inline;overflow:visible;enable-background:accumulate"
         id="rect3788-1"
         width="1717.6807"
         height="299.7359"
         x="-1957.7275"
         y="123.42444"
         ry="20"
         inkscape:export-filename="/media/alvis/OTHER/screw-startbtn/figure/cover-light-2.png"
         inkscape:export-xdpi="90"
         inkscape:export-ydpi="90" />
      <text
         transform="scale(1.0000463,0.9999537)"
         xml:space="preserve"
         style="font-size:12.79940796px;font-style:normal;font-variant:normal;font-weight:bold;font-stretch:normal;text-align:start;line-height:0%;letter-spacing:0px;word-spacing:0px;writing-mode:lr-tb;text-anchor:start;fill:#000000;fill-opacity:1;stroke:none;font-family:LiHei Pro;-inkscape-font-specification:LiHei Pro Bold"
         x="-1876.2875"
         y="328.55325"
         id="text3778-0"
         sodipodi:linespacing="0%"
         inkscape:export-filename="/media/alvis/OTHER/screw-startbtn/figure/cover-light-2.png"
         inkscape:export-xdpi="90"
         inkscape:export-ydpi="90"><tspan
           sodipodi:role="line"
           id="tspan3780-2"
           x="-1876.2875"
           y="328.55325"
           style="font-size:149.32641602px;font-weight:bold;line-height:1.25;fill:#ffffff;-inkscape-font-specification:LiHei Pro Bold">以 軟 體 改 變 工 業 界</tspan></text>
      <text
         transform="scale(1.0000463,0.9999537)"
         sodipodi:linespacing="0%"
         xml:space="preserve"
         style="font-size:12.79940796px;font-style:normal;font-variant:normal;font-weight:bold;font-stretch:normal;text-align:start;line-height:0%;letter-spacing:0px;word-spacing:0px;writing-mode:lr-tb;text-anchor:start;fill:#000000;fill-opacity:1;stroke:none;font-family:LiHei Pro;-inkscape-font-specification:LiHei Pro Bold"
         x="-1081.6852"
         y="809.02051"
         id="text2996-4-3"
         inkscape:export-filename="/media/alvis/OTHER/screw-startbtn/figure/cover-light-2.png"
         inkscape:export-xdpi="90"
         inkscape:export-ydpi="90"><tspan
           sodipodi:role="line"
           id="tspan2998-4-6"
           x="-1081.6852"
           y="809.02051"
           style="font-size:76.79644775px;line-height:1.25;fill:#000000;fill-opacity:0.66666667;stroke:none">動程科技 MAPACODE INC</tspan></text>
      <g
         style="fill:#100f0d;fill-opacity:0.39607843"
         transform="matrix(0.55805476,0,0,0.55800307,99.829046,405.87031)"
         id="g26310"
         inkscape:export-filename="/media/alvis/OTHER/screw-startbtn/figure/cover-light-2.png"
         inkscape:export-xdpi="90"
         inkscape:export-ydpi="90">
        <path
           id="path5918-1"
           style="fill:#100f0d;fill-opacity:0.39607843;fill-rule:nonzero;stroke:none"
           d="m -450.49568,-189.40928 c 17.1544,-0.046 34.295,-0.813 51.4494,-0.9524 -4.5993,18.9779 -2.4297,39.6051 -2.1974,58.9941 -4.0674,-0.7642 -8.1115,-1.3705 -12.2625,-1.5586 0,-10.0952 0,-20.1998 0,-30.281 0,-2.4158 -3.7631,-2.4158 -3.7631,0 0,10.7084 0,21.3937 0,32.1021 0,1.4007 1.2474,1.9884 2.309,1.7724 0.1788,0.06 0.36,0.1022 0.576,0.1092 4.9315,0.1556 9.712,0.9825 14.5436,1.9372 1.187,0.2346 2.3879,-0.5249 2.3832,-1.8118 -0.063,-20.0325 -2.7061,-41.6817 2.3206,-61.3333 1.9605,-0.1858 2.1487,-2.95 0.5575,-3.6004 -0.5714,-1.2776 -2.7038,-1.5796 -3.4239,-0.1162 -17.5029,0.1394 -34.9919,0.9292 -52.4924,0.9756 -2.4274,0 -2.4274,3.7631 0,3.7631"
           inkscape:connector-curvature="0" />
        <path
           id="path5920-6"
           style="fill:#100f0d;fill-opacity:0.39607843;fill-rule:nonzero;stroke:none"
           d="m -493.52238,-35.634776 c 18.9988,-17.2683 34.7503,-36.8664 47.6701,-59.0174 12.5017,-21.437804 24.302,-45.349504 28.2671,-70.064904 0.381,-2.3693 -3.2497,-3.3914 -3.6283,-0.9989 -3.9373,24.5529 -15.626,47.8025 -27.8885,69.163704 -12.6155,21.9884 -28.4692,41.0848 -47.0801,58.2578 -20.058,18.5133 -42.4784,34.4622004 -65.7351,48.6805 -11.1126,6.7991 -22.4854,13.5447 -34.4018,18.8386 -11.8095,5.245 -24.3438,8.813 -36.8641,12.0302 0.084,-15.7677 0.5343,-31.6677996 -1.6724,-47.2937996 47.6561,-7.9721004 91.6073,-30.0116004 128.6456,-60.6597004 17.1405,-14.1834 32.7549,-30.2554 46.9755,-47.354104 12.5645,-15.1127 25.4309,-32.7317 28.5946,-52.5923 1.201,-0.6736 1.712,-2.4855 0.151,-3.2056 -6,-2.7177 -12.6039,-3.1591 -19.1405,-3.252 l 0.01,-0.1394 c -0.044,-2.439 -0.2857,-4.9012 -0.4506,-7.3403 -0.158,-2.3925 -0.063,-5.0406 -0.6063,-7.3867 -0.216,-0.9292 -1.3821,-1.6493 -2.3136,-1.3008 l -0.01,0 c -0.8501,0.3252 -1.3008,0.9059 -1.3821,1.8118 l 0,0.1858 c 0,0.2091 0.028,0.3949 0.079,0.5575 0.037,0.4646 0.13,1.3473 0.1579,1.6725 0.1138,1.4866 0.2161,2.9733 0.3183,4.4599 0.1695,2.4391 0.4018,4.9013 0.446,7.3403 l 0.016,0.1394 c -0.3809,0 -0.7665,0 -1.1475,0 -2.4251,0 -2.4251,3.7398 0,3.7398 6.6504,0.023 13.8235,-0.2555 20.1905,2.0209 -3.2799,19.9071 -16.4692,37.2799 -29.0453,52.4018 -13.2079,15.883904 -27.8815,30.617904 -43.6097,43.995304 -35.324,30.0348 -77.9047,51.619 -123.5631,60.3042 1.2799,-1.7119 -1.2103,-4.0627 -2.8502,-2.4227 -0.7433,0.741 -1.4797,1.4797 -2.223,2.2183 -0.1998,-1.1312 -0.4181,-2.2648 -0.6527,-3.396 -0.4971,-2.3717 -4.1208,-1.3659 -3.6284,1.0011 3.8003,18.2161004 3.0244,36.9524 2.9478,55.4518 -0.5459,0.137 -1.0872,0.2787 -1.6354,0.4158 -2.3507,0.59 -1.3542,4.2206 1.0012,3.626 13.7793,-3.4681 27.6144,-7.1823 40.7224,-12.7433 12.8432,-5.4518 24.9198,-12.6643 36.8408,-19.8769 23.6214,-14.2809996 46.065,-30.6968 66.497,-49.2682"
           inkscape:connector-curvature="0" />
        <path
           id="path6214-3"
           style="fill:#100f0d;fill-opacity:0.39607843;fill-rule:nonzero;stroke:none"
           d="m -875.28958,-154.79838 c 14.6899,9.3379 30.7409,16.0743 48.3832,18.7084 21.2985,3.1777 43.1103,-0.5923 63.6747,-6.1881 21.8513,-5.9466 43.4587,-14.0534 65.9186,-17.4216 6.5296,-0.9988 23.1777,-4.065 36.1672,-3.0197 -0.216,0.093 -0.4204,0.2322 -0.6109,0.3716 -0.6806,-0.4181 -1.5493,-0.4646 -2.4344,0.1859 -15.1289,11.0801 -32.4111,19.1172 -46.9569,30.9895 -9.6516,7.8861 -12.525,14.9198 -15.4379,26.8757 -0.8153,3.3542 4.3624,4.766504 5.1801,1.396 0.9872,-4.0395 2.0534,-8.1301 3.5168,-12.0186 3.1266,-8.3623 11.8629,-13.8652 19.0429,-18.6178 11.777,-7.7886 24.1673,-14.5947 35.6516,-22.7944 1.2195,2.2996 5.3124,1.022 4.9361,-1.928 0.1277,-0.023 0.281,-0.046 0.5226,-0.07 0.8734,-0.1162 1.8374,-0.046 2.7085,0.07 2.4437,0.2787 4.8641,0.8827 7.2172,1.5795 0.7596,0.2323 1.698,0.5111 2.6922,0.813 0.3531,0.604 0.6481,1.2312 0.8478,1.928 0.7898,2.6946 4.3856,2.3229 5.1684,0.2788 0.6621,0.3252 1.2358,0.6504 1.5912,0.9756 l 0.4321,0.3252 c 0.9129,1.4169 3.4471,2.0209 4.8083,0.1626 5.1104,-6.9919 12.3322,-12.8687 19.0685,-18.2114 4.6272,-3.6701 13.712,-12.4738 20.1998,-12.4506 -0.07,0 -0.3763,1.0453 -1.0291,2.6249 -0.9268,2.2532 -2.1788,4.2741 -3.2915,6.4111 -1.9744,3.7863 -5.8141,6.7596 -9.0383,9.4541 -6.2439,5.2033 -12.7689,10.0581 -19.468,14.6341 -2.2834,1.5564 -1.0476,4.8781 1.0035,5.1104 -0.6203,0.9291 -0.6876,2.1835 0.3832,3.1591 19.8769,18.3484 54.1602,8.1742 76.8362,-2.0209 1.101,0.3949 2.446,0.209 3.3008,-0.9989 0.1951,-0.2555 0.3856,-0.5342 0.5761,-0.7897 l 0.4483,-0.2091 c 1.0848,-0.5342 1.468,-1.4402 1.3798,-2.3229 8.4878,-11.684 17.4076,-23.0429 24.878,-35.4238 0.2392,0.1626 0.4692,0.3484 0.7015,0.511 0.3275,0.209 0.6481,0.3252 0.9617,0.3716 l -0.5273,0.4414 c -11.1034,11.9628 -18.899,28.2926 -26.8316,42.8106 l -0.223,0.07 c -14.4762,6.3531 -29.6213,10.6365 -44.734,15.1638 -12.0325,3.6051 -26.7177,6.6875 -37.4285,13.5865 -18.9616,12.211304 -38.5226,25.849004 -53.7258,42.687504 -1.1289,-1.1661 -3.2265,-1.4425 -4.2486,0.3949 -24.4715,43.7955 -65.238,75.0707004 -94.1369,115.6189 l -0.1161,-0.1115 c 23.6817,-39.4540996 52.4598,-75.5307 77.6607,-113.9906 0.6435,-0.9849 0.3879,-2.4111 -0.4135,-3.2218 -3.0615,-3.0755 -6.0418,-6.5087 -10.2694,-7.8537 -1.3357,-0.425 -2.3507,0.1766 -2.8757,1.1081 -0.8618,-0.3531 -1.8815,-0.2788 -2.7457,0.5598 -31.9163,30.9662 -71.1567,54.1346 -109.8488,75.8744004 18.0859,-17.1405004 36.8176,-33.5934004 55.31,-50.2972004 0.4274,-0.06 0.8548,-0.1696 1.2846,-0.223 1.6167,-0.1998 2.1556,-1.4611 1.9326,-2.6922 15.4309,-13.9954 30.6527,-28.1974 45.1451,-43.1963 2.3995,-2.4831 -1.3635,-6.313504 -3.7654,-3.8257 -15.0824,15.612 -30.9593,30.3669 -47.0359,44.9128 -12.072,1.9977 -24.9779,7.7398 -35.1057,13.928 -6.2648,3.8327 -12.9454,7.3798 -18.9361,11.6051 -0.295,0.2113 -0.7386,0.5366 -1.252,0.9361 0.095,-1.4565 0.1603,-2.9245 0.1835,-4.4553 0.028,-1.3937 -0.8362,-2.2253 -1.8769,-2.5017 -2.3856,-22.8688 -10.0046,-45.6608 -18.4018,-66.636404 -7.1452,-17.8513 -15.4634,-36.9059 -26.9477,-53.1428 z m 364.0251,-29.8025 c -0.4297,-0.093 -0.8223,-0.093 -1.1777,0 0.1905,-0.9989 -0.1162,-2.0906 -1.194,-2.7875 -2.7247,-1.7654 -6.0743,-5.0406 -6.1068,-8.5482 0,-1.2079 0.374,-4.6922 2.2183,-4.7619 3.2869,-0.1161 6.4274,2.8572 8.4948,5.0871 2.1765,2.3693 5.194,5.9234 5.3658,9.3148 0.1836,3.6701 -5.166,2.2531 -7.6004,1.6957 z m -384.1273,14.8896 c 19.4239,17.6306 31.6631,43.9372 41.2543,67.8954 9.712,24.267104 18.7642,50.926804 19.5424,77.370404 l -0.1255,0.1 c -0.9988,1.0081 -1.9953,1.9651 -2.8037,3.1289 -1.1916,1.712 0.4181,3.9953 2.2997,4.0255 1.2404,0.023 2.5459,-0.6875 3.8049,-1.6051 0.9291,-0.081 1.7816,-0.6271 2.1091,-1.7119 0.7875,-0.6876 1.5192,-1.3426 2.1464,-1.8003 4.9221,-3.5958 10.295,-6.5063 15.4657,-9.7398 9.2009,-5.7537 19.5772,-11.5098 30.3716,-14.9407 -19.77,17.763 -39.691,35.3681 -58.6828,53.9720004 -2.4693,2.4251 1.2984,6.2438996 3.77,3.8234996 0.4065,-0.3949 0.8153,-0.7898 1.2218,-1.1823996 0.7549,0.8850996 2.0093,1.3426996 3.266,0.6387996 41.8257,-23.3844 84.929,-47.9395 119.5399,-81.5283 l 0.3206,-0.3694 0.137,0.06 c 9.2149,2.9385 4.3229,8.0186 0.7526,13.2939 -3.7886,5.5981 -7.6144,11.173 -11.4936,16.7038 -7.0035,9.9814 -14.1068,19.8908 -21.1614,29.835 -13.4378,18.9059004 -26.6875,37.9442 -38.6062,57.849 -1.41,0.7619 -2.216,2.6736 -0.748,4.1788 l 0.3601,0.3647 0.3252,0.2741 c 0.6875,0.6458 1.389,1.3008 2.1115,1.935 -1.1731,2.4111 2.2299,4.7944 4.2578,2.964 0.5064,0.2439 1.0221,0.4738 1.5633,0.6434 2.5877,0.8246 4.432,-2.6225 2.6086,-4.4739 -0.2834,-0.2903 -0.5807,-0.5389 -0.8804,-0.7619 28.5389,-40.0905 68.6596,-71.073 93.2682,-114.0672 0.9408,0.9199 2.4204,1.2033 3.5447,-0.072 7.7329,-8.7085 16.7828,-16.2578 26,-23.3449 9.3821,-7.2102 19.5354,-15.981404 30.4436,-20.801404 24.0464,-10.6155 50.1114,-15.4541 74.4366,-25.3286 0.9594,1.5331 3.4704,2.1231 4.6272,0.07 8.4855,-15.0058 16.4343,-33.0778 28.2253,-45.7607 0.3182,-0.3484 0.5203,-0.7201 0.6295,-1.0918 5.3217,0.9524 13.1498,0.813 13.2102,-6.3182 0.04,-5.691 -4.1394,-11.3821 -8.144,-15.0987 -3.5866,-3.3217 -9.8606,-7.7816 -14.7433,-4.2509 -6.5204,4.6923 -4.1975,12.4971 0.2206,17.8862 l -0.4041,0.511 c -7.7283,12.9385 -17.0755,24.7154 -25.8815,36.8873 -20.216,9.5006 -54.8153,21.4634 -73.3867,4.3206 -0.4228,-0.3717 -0.8827,-0.604 -1.3496,-0.6737 9.1359,-6.2253 19.1846,-12.8455 26.3716,-21.1846 3.4216,-3.9953 11.8815,-15.9349 5.4611,-20.5342 -5.8002,-4.158 -18.5737,7.0847 -22.4971,10.0348 -7.8954,5.9001 -16.058,12.4738 -22.346,20.209 -1.6307,-0.9988 -4.1766,-2.1835 -7.0918,-3.252 -7.6446,-8.3856 -25.4355,-7.2241 -35.0197,-6.6202 -20.0325,1.2776 -39.252,5.6678 -58.4784,11.3356 -23.4913,6.9454 -47.5702,15.3078 -72.3298,15.5401 -31.9442,0.3252 -59.6352,-12.6365 -83.67,-33.101 -2.5947,-2.23 -6.4042,1.4169 -3.8235,3.763"
           inkscape:connector-curvature="0" />
      </g>
      <flowRoot
         xml:space="preserve"
         id="flowRoot3373"
         style="font-size:40px;font-style:normal;font-weight:normal;line-height:125%;letter-spacing:0px;word-spacing:0px;fill:#000000;fill-opacity:1;stroke:none;font-family:Sans"
         transform="translate(0,-435.82711)"><flowRegion
           id="flowRegion3375"><rect
             id="rect3377"
             width="32.774902"
             height="189.62622"
             x="-2193.5774"
             y="18.000431" /></flowRegion><flowPara
           id="flowPara3379" /></flowRoot>    </g>
    <text
       sodipodi:linespacing="125%"
       id="text3038"
       y="1340.8047"
       x="-523.90448"
       style="font-size:106.66172791px;font-style:normal;font-variant:normal;font-weight:bold;font-stretch:normal;text-align:start;line-height:125%;letter-spacing:0px;word-spacing:0px;writing-mode:lr-tb;text-anchor:start;fill:#000000;fill-opacity:1;stroke:none;font-family:LiHei Pro;-inkscape-font-specification:LiHei Pro Bold"
       xml:space="preserve"
       transform="scale(1.0000463,0.9999537)"><tspan
         y="1340.8047"
         x="-523.90448"
         id="tspan3040"
         sodipodi:role="line" /></text>
    <g
       id="g3027"
       transform="matrix(1.25,0,0,1.25,-4.7256732,59.969147)"
       inkscape:export-filename="/media/alvis/OTHER/screw-startbtn/figure/youtube.png"
       inkscape:export-xdpi="90"
       inkscape:export-ydpi="90">
      <rect
         style="color:#000000;fill:#1f8dd6;fill-opacity:1;fill-rule:nonzero;stroke:#2d3e50;stroke-width:0;stroke-miterlimit:4;stroke-opacity:1;stroke-dasharray:none;stroke-dashoffset:0;marker:none;visibility:visible;display:inline;overflow:visible;enable-background:accumulate"
         id="rect3782-32-3"
         width="2048"
         height="1152"
         x="18.902693"
         y="-1391.8766"
         inkscape:export-filename="/media/alvis/OTHER/screw-startbtn/figure/youtube.png"
         inkscape:export-xdpi="90"
         inkscape:export-ydpi="90" />
      <rect
         rx="20"
         style="color:#000000;fill:none;stroke:#ffffff;stroke-width:9.64730358;stroke-miterlimit:4;stroke-opacity:1;stroke-dasharray:none;stroke-dashoffset:0;marker:none;visibility:visible;display:inline;overflow:visible;enable-background:accumulate"
         id="rect3788-1-6"
         width="1717.6807"
         height="299.7359"
         x="152.05724"
         y="-964.54999"
         ry="20"
         inkscape:export-filename="/media/alvis/OTHER/screw-startbtn/figure/youtube.png"
         inkscape:export-xdpi="90"
         inkscape:export-ydpi="90" />
      <text
         transform="scale(1.0000463,0.9999537)"
         xml:space="preserve"
         style="font-size:12.79940796px;font-style:normal;font-variant:normal;font-weight:bold;font-stretch:normal;text-align:start;line-height:0%;letter-spacing:0px;word-spacing:0px;writing-mode:lr-tb;text-anchor:start;fill:#000000;fill-opacity:1;stroke:none;font-family:LiHei Pro;-inkscape-font-specification:LiHei Pro Bold"
         x="233.39967"
         y="-759.47156"
         id="text3778-0-7"
         sodipodi:linespacing="0%"
         inkscape:export-filename="/media/alvis/OTHER/screw-startbtn/figure/youtube.png"
         inkscape:export-xdpi="90"
         inkscape:export-ydpi="90"><tspan
           sodipodi:role="line"
           id="tspan3780-2-5"
           x="233.39967"
           y="-759.47156"
           style="font-size:149.32641602px;font-weight:bold;line-height:1.25;fill:#ffffff;-inkscape-font-specification:LiHei Pro Bold">以 軟 體 改 變 工 業 界</tspan></text>
      <text
         transform="scale(1.0000463,0.9999537)"
         sodipodi:linespacing="0%"
         xml:space="preserve"
         style="font-size:12.79940796px;font-style:normal;font-variant:normal;font-weight:bold;font-stretch:normal;text-align:start;line-height:0%;letter-spacing:0px;word-spacing:0px;writing-mode:lr-tb;text-anchor:start;fill:#000000;fill-opacity:1;stroke:none;font-family:LiHei Pro;-inkscape-font-specification:LiHei Pro Bold"
         x="1083.9994"
         y="-279.0043"
         id="text2996-4-3-3"
         inkscape:export-filename="/media/alvis/OTHER/screw-startbtn/figure/youtube.png"
         inkscape:export-xdpi="90"
         inkscape:export-ydpi="90"><tspan
           sodipodi:role="line"
           id="tspan2998-4-6-5"
           x="1083.9994"
           y="-279.0043"
           style="font-size:76.79644775px;line-height:1.25;fill:#000000;fill-opacity:0.66666667;stroke:none">動程科技 MAPACODE INC</tspan></text>
      <path
         inkscape:export-ydpi="90"
         inkscape:export-xdpi="90"
         inkscape:export-filename="/media/alvis/OTHER/screw-startbtn/figure/youtube.png"
         inkscape:connector-curvature="0"
         d="m 1971.2936,-797.25455 c 9.5731,-0.0257 19.1385,-0.45366 28.7116,-0.53144 -2.5666,10.58972 -1.3559,22.09977 -1.2262,32.91889 -2.2699,-0.42643 -4.5267,-0.76475 -6.8432,-0.86971 0,-5.63315 0,-11.27155 0,-16.89689 0,-1.34802 -2.1,-1.34802 -2.1,0 0,5.97532 0,11.93775 0,17.91307 0,0.7816 0.6961,1.10954 1.2885,0.98901 0.1,0.0335 0.2009,0.057 0.3215,0.0609 2.752,0.0868 5.4198,0.54824 8.1161,1.08096 0.6624,0.13091 1.3326,-0.29289 1.33,-1.01098 -0.035,-11.1782 -1.5102,-23.25852 1.295,-34.22417 1.094,-0.10368 1.1991,-1.64611 0.3111,-2.00904 -0.3189,-0.7129 -1.5089,-0.88142 -1.9107,-0.0648 -9.7676,0.0778 -19.5274,0.5185 -29.2937,0.54439 -1.3546,0 -1.3546,2.09982 0,2.09982"
         style="fill:#100f0d;fill-opacity:0.39607843;fill-rule:nonzero;stroke:none"
         id="path5918-1-2" />
      <path
         inkscape:export-ydpi="90"
         inkscape:export-xdpi="90"
         inkscape:export-filename="/media/alvis/OTHER/screw-startbtn/figure/youtube.png"
         inkscape:connector-curvature="0"
         d="m 1947.2824,-711.4479 c 10.6024,-9.63577 19.3926,-20.57157 26.6025,-32.93189 6.9766,-11.96237 13.5619,-25.30517 15.7746,-39.09644 0.2126,-1.32207 -1.8135,-1.89241 -2.0248,-0.55739 -2.1972,13.7006 -8.7202,26.67395 -15.5633,38.59356 -7.0401,12.2696 -15.8874,22.92545 -26.2733,32.50803 -11.1934,10.33048 -23.7052,19.23002 -36.6838,27.16387 -6.2014,3.79392 -12.548,7.55799 -19.198,10.512 -6.5904,2.92673 -13.5852,4.91768 -20.5722,6.71289 0.047,-8.79843 0.2981,-17.67073 -0.9333,-26.39009 26.5947,-4.44845 51.1219,-16.74656 71.7913,-33.8483 9.5653,-7.91438 18.279,-16.8826 26.2149,-26.42373 7.0116,-8.43293 14.1918,-18.26439 15.9573,-29.34667 0.6702,-0.37587 0.9554,-1.38691 0.084,-1.78873 -3.3483,-1.51649 -7.0337,-1.76279 -10.6815,-1.81463 l 0.01,-0.0778 c -0.024,-1.36097 -0.1594,-2.73489 -0.2514,-4.09591 -0.088,-1.33502 -0.035,-2.81267 -0.3384,-4.1218 -0.1205,-0.5185 -0.7713,-0.92032 -1.2911,-0.72585 l -0.01,0 c -0.4744,0.18146 -0.7259,0.50549 -0.7713,1.01099 l 0,0.10367 c 0,0.11668 0.016,0.22036 0.044,0.31109 0.021,0.25925 0.073,0.7518 0.088,0.93326 0.063,0.82953 0.1206,1.65911 0.1777,2.48864 0.095,1.36102 0.2242,2.73494 0.2489,4.09591 l 0.01,0.0778 c -0.2126,0 -0.4278,0 -0.6404,0 -1.3533,0 -1.3533,2.08682 0,2.08682 3.7113,0.0128 7.7143,-0.14257 11.2674,1.12767 -1.8303,11.10822 -9.1907,20.8023 -16.2088,29.24037 -7.3708,8.86326 -15.5595,17.08488 -24.3366,24.54951 -19.7128,16.75951 -43.4751,28.80356 -68.955,33.64993 0.7142,-0.95525 -0.6754,-2.267 -1.5906,-1.35187 -0.4148,0.41348 -0.8257,0.82567 -1.2405,1.23781 -0.1115,-0.63121 -0.2334,-1.26376 -0.3643,-1.89497 -0.2774,-1.32342 -2.2996,-0.76218 -2.0248,0.55861 2.1207,10.16464 1.6877,20.61956 1.645,30.94228 -0.3046,0.0764 -0.6067,0.15551 -0.9126,0.23202 -1.3119,0.32922 -0.7558,2.3551 0.5587,2.02331 7.6896,-1.93521 15.4103,-4.00774 22.7253,-7.1108 7.1672,-3.04212 13.9066,-7.06671 20.5592,-11.09137 13.182,-7.96884 25.7068,-17.12891 37.109,-27.4918"
         style="fill:#100f0d;fill-opacity:0.39607843;fill-rule:nonzero;stroke:none"
         id="path5920-6-9" />
      <path
         inkscape:export-ydpi="90"
         inkscape:export-xdpi="90"
         inkscape:export-filename="/media/alvis/OTHER/screw-startbtn/figure/youtube.png"
         inkscape:connector-curvature="0"
         d="m 1734.2354,-777.94156 c 8.1978,5.21058 17.1551,8.96951 27.0005,10.43934 11.8857,1.77317 24.0579,-0.3305 35.5339,-3.45298 12.1942,-3.31822 24.2524,-7.84184 36.7862,-9.7213 3.6439,-0.55734 12.9344,-2.26828 20.1833,-1.685 -0.1205,0.0519 -0.2346,0.12956 -0.3409,0.20735 -0.3798,-0.2333 -0.8646,-0.25925 -1.3585,0.10373 -8.4428,6.18273 -18.0872,10.66746 -26.2046,17.29224 -5.3861,4.40047 -6.9896,8.32529 -8.6152,14.99672 -0.4549,1.87166 2.4345,2.65973 2.8908,0.77897 0.5509,-2.25405 1.1459,-4.53662 1.9626,-6.70641 1.7448,-4.66619 6.6201,-7.73683 10.627,-10.38879 6.5722,-4.34606 13.4866,-8.14389 19.8955,-12.71935 0.6806,1.28319 2.9646,0.57028 2.7546,-1.07583 0.071,-0.0128 0.1568,-0.0257 0.2917,-0.0391 0.4874,-0.0648 1.0253,-0.0257 1.5115,0.0391 1.3637,0.15552 2.7144,0.49255 4.0275,0.88137 0.4239,0.12962 0.9476,0.2852 1.5024,0.45366 0.1971,0.33703 0.3617,0.68701 0.4732,1.07583 0.4407,1.50359 2.4474,1.29618 2.8842,0.15557 0.3695,0.18146 0.6897,0.36292 0.888,0.54439 l 0.2411,0.18146 c 0.5095,0.79063 1.9237,1.12767 2.6833,0.0907 2.8519,-3.9015 6.8821,-7.18077 10.6413,-10.16202 2.5822,-2.04792 7.652,-6.96042 11.2726,-6.94747 -0.039,0 -0.21,0.58328 -0.5743,1.4647 -0.5172,1.25729 -1.2159,2.38496 -1.8369,3.57742 -1.1018,2.11276 -3.2445,3.77187 -5.0438,5.27541 -3.4845,2.90346 -7.1258,5.61245 -10.8642,8.16587 -1.2743,0.86848 -0.5846,2.722 0.56,2.85162 -0.3462,0.51844 -0.3837,1.2184 0.2138,1.76279 11.0924,10.23846 30.2244,4.56123 42.8788,-1.12767 0.6145,0.22036 1.365,0.11663 1.8421,-0.55739 0.1088,-0.14257 0.2151,-0.29808 0.3215,-0.44065 l 0.2501,-0.11668 c 0.6054,-0.29809 0.8193,-0.80364 0.77,-1.29619 4.7367,-6.5197 9.7144,-12.858 13.8833,-19.76658 0.1335,0.0907 0.2619,0.1944 0.3915,0.28514 0.1828,0.11662 0.3617,0.18146 0.5367,0.20735 l -0.2943,0.2463 c -6.1963,6.67528 -10.5467,15.78736 -14.9735,23.88845 l -0.1244,0.0391 c -8.0785,3.54505 -16.5303,5.9352 -24.9641,8.46144 -6.7147,2.01166 -14.9099,3.73165 -20.8871,7.58131 -10.5816,6.81395 -21.4977,14.42383 -29.9819,23.81976 -0.63,-0.65069 -1.8006,-0.80492 -2.371,0.22036 -13.6564,24.43802 -36.4064,41.88968 -52.5335,64.5157 l -0.065,-0.0622 c 13.2157,-22.01551 29.2754,-42.14636 43.3389,-63.6071 0.3591,-0.54958 0.2165,-1.3454 -0.2308,-1.79778 -1.7084,-1.71614 -3.3716,-3.63187 -5.7309,-4.38239 -0.7453,-0.23715 -1.3118,0.0985 -1.6048,0.61833 -0.4809,-0.19703 -1.0499,-0.15557 -1.5322,0.31237 -17.811,17.27923 -39.7093,30.20727 -61.3016,42.33815 10.0929,-9.56446 20.5462,-18.74523 30.866,-28.066 0.2385,-0.0335 0.477,-0.0946 0.7168,-0.12443 0.9022,-0.11149 1.203,-0.8153 1.0785,-1.50226 8.6113,-7.80947 17.1059,-15.73423 25.1935,-24.10367 1.339,-1.38557 -0.7609,-3.52295 -2.1013,-2.13475 -8.4168,8.71155 -17.277,16.94483 -26.2486,25.06148 -6.7369,1.11472 -13.9391,4.31883 -19.5909,7.77187 -3.4961,2.13866 -7.2243,4.11795 -10.5674,6.47568 -0.1646,0.11791 -0.4122,0.29942 -0.6987,0.52235 0.053,-0.81273 0.089,-1.63188 0.1024,-2.48607 0.016,-0.77769 -0.4666,-1.24173 -1.0474,-1.39596 -1.3313,-12.76086 -5.5831,-25.47887 -10.2692,-37.18332 -3.9874,-9.96108 -8.6294,-20.5936 -15.0383,-29.65384 z m 203.1459,-16.62989 c -0.2398,-0.0519 -0.4589,-0.0519 -0.6572,0 0.1063,-0.55739 -0.065,-1.16656 -0.6663,-1.55543 -1.5205,-0.9851 -3.3898,-2.81267 -3.4079,-4.76992 0,-0.67402 0.2087,-2.61827 1.2379,-2.65716 1.8343,-0.0648 3.5868,1.59433 4.7406,2.83862 1.2146,1.32208 2.8985,3.30527 2.9944,5.19769 0.1024,2.04792 -2.8829,1.25723 -4.2415,0.9462 z m -214.364,8.30844 c 10.8396,9.83793 17.6697,24.5171 23.0221,37.88585 5.4198,13.54111 10.4715,28.41731 10.9057,43.17292 l -0.07,0.0558 c -0.5574,0.56252 -1.1135,1.09653 -1.5646,1.74594 -0.665,0.9553 0.2333,2.22939 1.2833,2.24624 0.6923,0.0128 1.4208,-0.38363 2.1234,-0.89565 0.5185,-0.0452 0.9942,-0.34993 1.177,-0.95525 0.4395,-0.38368 0.8478,-0.74917 1.1978,-1.00457 2.7468,-2.00647 5.7452,-3.63054 8.6307,-5.43484 5.1346,-3.21058 10.9251,-6.4225 16.949,-8.33696 -11.0327,9.91181 -22.1497,19.73551 -32.7482,30.11654 -1.378,1.35322 0.7246,3.48412 2.1039,2.13353 0.2268,-0.22036 0.4549,-0.44071 0.6818,-0.65978 0.4213,0.49389 1.1213,0.74923 1.8226,0.35645 23.341,-13.04857 47.395,-26.75039 66.7098,-45.49304 l 0.1789,-0.20613 0.077,0.0335 c 5.1424,1.63969 2.4124,4.4744 0.42,7.41804 -2.1143,3.12376 -4.2493,6.23457 -6.4141,9.32077 -3.9083,5.56965 -7.8724,11.09913 -11.8092,16.64802 -7.499,10.54955 -14.8931,21.17298 -21.5444,32.27992 -0.7868,0.42514 -1.2366,1.49188 -0.4174,2.33178 l 0.201,0.20351 0.1814,0.15295 c 0.3837,0.36035 0.7752,0.72585 1.1784,1.07973 -0.6547,1.3454 1.2444,2.67529 2.376,1.65392 0.2826,0.1361 0.5704,0.26439 0.8725,0.35902 1.444,0.46013 2.4733,-1.46336 1.4557,-2.49645 -0.1582,-0.16199 -0.3241,-0.30071 -0.4913,-0.42514 15.9263,-22.37062 38.3158,-39.65895 52.0487,-63.64985 0.5251,0.51331 1.3508,0.67145 1.9782,-0.0402 4.3154,-4.85937 9.3657,-9.07191 14.5094,-13.02653 5.2357,-4.02331 10.9018,-8.91767 16.9892,-11.60725 13.4192,-5.92348 27.9649,-8.62343 41.5397,-14.13343 0.5354,0.85547 1.9367,1.18469 2.5822,0.0391 4.7354,-8.37329 9.1713,-18.45752 15.7513,-25.53461 0.1776,-0.19441 0.2904,-0.40182 0.3513,-0.60923 2.9698,0.53144 7.3383,0.45365 7.372,-3.52558 0.022,-3.17559 -2.31,-6.35124 -4.5448,-8.42512 -2.0015,-1.85352 -5.5027,-4.34215 -8.2276,-2.37201 -3.6387,2.61831 -2.3424,6.97342 0.1231,9.98055 l -0.2255,0.28514 c -4.3128,7.21972 -9.529,13.79127 -14.4433,20.58323 -11.2816,5.30136 -30.5899,11.97664 -40.9538,2.41091 -0.2359,-0.20741 -0.4925,-0.33704 -0.7531,-0.37593 5.0983,-3.47374 10.7061,-7.16783 14.7168,-11.82107 1.9094,-2.22939 6.6305,-8.89173 3.0476,-11.45815 -3.2368,-2.32018 -10.3652,3.95328 -12.5546,5.59945 -4.4061,3.29227 -8.9613,6.96042 -12.4703,11.27668 -0.91,-0.55733 -2.3308,-1.2184 -3.9576,-1.81462 -4.2661,-4.67919 -14.1944,-4.03107 -19.5429,-3.69409 -11.1793,0.7129 -21.9048,3.16265 -32.6342,6.3253 -13.1094,3.87555 -26.5468,8.54179 -40.364,8.67142 -17.8266,0.18146 -33.2797,-7.05121 -46.6924,-18.47046 -1.448,-1.24435 -3.5739,0.79063 -2.1337,2.09976"
         style="fill:#100f0d;fill-opacity:0.39607843;fill-rule:nonzero;stroke:none"
         id="path6214-3-1" />
    </g>
  </g>
</svg>
